<mxfile host="app.diagrams.net" modified="2020-03-20T08:41:11.648Z" agent="Mozilla/5.0 (Windows NT 10.0; Win64; x64; rv:74.0) Gecko/20100101 Firefox/74.0" etag="1n60o_SlCnn1NjlycBej" version="12.8.8" type="github">
  <diagram id="C5RBs43oDa-KdzZeNtuy" name="Page-1">
    <mxGraphModel dx="2249" dy="1938" grid="1" gridSize="10" guides="1" tooltips="1" connect="1" arrows="1" fold="1" page="1" pageScale="1" pageWidth="827" pageHeight="1169" math="0" shadow="0">
      <root>
        <mxCell id="WIyWlLk6GJQsqaUBKTNV-0" />
        <mxCell id="WIyWlLk6GJQsqaUBKTNV-1" parent="WIyWlLk6GJQsqaUBKTNV-0" />
        <mxCell id="WTOQ7RgYzSvXcb4ZEk5k-353" style="edgeStyle=orthogonalEdgeStyle;rounded=0;orthogonalLoop=1;jettySize=auto;html=1;exitX=0.5;exitY=0;exitDx=0;exitDy=0;strokeWidth=4;fontSize=10;opacity=90;entryX=0.5;entryY=0;entryDx=0;entryDy=0;" parent="WIyWlLk6GJQsqaUBKTNV-1" source="WTOQ7RgYzSvXcb4ZEk5k-84" target="WTOQ7RgYzSvXcb4ZEk5k-340" edge="1">
          <mxGeometry relative="1" as="geometry">
            <mxPoint x="-240" y="510" as="targetPoint" />
            <Array as="points">
              <mxPoint x="1480" y="480" />
              <mxPoint x="-330" y="480" />
            </Array>
          </mxGeometry>
        </mxCell>
        <mxCell id="WTOQ7RgYzSvXcb4ZEk5k-354" style="edgeStyle=orthogonalEdgeStyle;rounded=0;orthogonalLoop=1;jettySize=auto;html=1;exitX=0.5;exitY=1;exitDx=0;exitDy=0;strokeWidth=4;fontSize=10;opacity=90;entryX=0.5;entryY=0;entryDx=0;entryDy=0;" parent="WIyWlLk6GJQsqaUBKTNV-1" source="WTOQ7RgYzSvXcb4ZEk5k-343" target="WTOQ7RgYzSvXcb4ZEk5k-340" edge="1">
          <mxGeometry relative="1" as="geometry">
            <mxPoint x="-320" y="580" as="targetPoint" />
            <Array as="points">
              <mxPoint x="1480" y="440" />
              <mxPoint x="-330" y="440" />
            </Array>
          </mxGeometry>
        </mxCell>
        <mxCell id="WTOQ7RgYzSvXcb4ZEk5k-0" value="业务流程" style="swimlane;startSize=40;fillColor=#f8cecc;strokeColor=#b85450;" parent="WIyWlLk6GJQsqaUBKTNV-1" vertex="1">
          <mxGeometry x="-40" y="-640" width="560" height="1680" as="geometry">
            <mxRectangle x="-40" y="-560" width="560" height="40" as="alternateBounds" />
          </mxGeometry>
        </mxCell>
        <mxCell id="WTOQ7RgYzSvXcb4ZEk5k-366" value="" style="rounded=0;whiteSpace=wrap;html=1;fontSize=10;opacity=90;align=center;" parent="WTOQ7RgYzSvXcb4ZEk5k-0" vertex="1">
          <mxGeometry y="40" width="560" height="1640" as="geometry" />
        </mxCell>
        <mxCell id="WTOQ7RgYzSvXcb4ZEk5k-83" style="edgeStyle=orthogonalEdgeStyle;rounded=0;orthogonalLoop=1;jettySize=auto;html=1;exitX=0.5;exitY=1;exitDx=0;exitDy=0;strokeWidth=4;" parent="WTOQ7RgYzSvXcb4ZEk5k-0" source="q9Dw7c0gLZ24XJoEXtp0-10" target="WTOQ7RgYzSvXcb4ZEk5k-55" edge="1">
          <mxGeometry relative="1" as="geometry" />
        </mxCell>
        <mxCell id="q9Dw7c0gLZ24XJoEXtp0-10" value="案卷接件" style="swimlane;fontStyle=0;childLayout=stackLayout;horizontal=1;startSize=41;fillColor=#ffcccc;horizontalStack=0;resizeParent=1;resizeParentMax=0;resizeLast=0;collapsible=1;marginBottom=0;strokeColor=#36393d;" parent="WTOQ7RgYzSvXcb4ZEk5k-0" vertex="1">
          <mxGeometry x="220" y="160" width="120" height="80" as="geometry">
            <mxRectangle x="220" y="160" width="120" height="40" as="alternateBounds" />
          </mxGeometry>
        </mxCell>
        <mxCell id="q9Dw7c0gLZ24XJoEXtp0-11" value="窗口人员" style="text;strokeColor=none;fillColor=none;align=center;verticalAlign=middle;spacingLeft=4;spacingRight=4;overflow=hidden;rotatable=0;points=[[0,0.5],[1,0.5]];portConstraint=eastwest;" parent="q9Dw7c0gLZ24XJoEXtp0-10" vertex="1">
          <mxGeometry y="41" width="120" height="39" as="geometry" />
        </mxCell>
        <mxCell id="WTOQ7RgYzSvXcb4ZEk5k-55" value="分卷" style="swimlane;fontStyle=0;childLayout=stackLayout;horizontal=1;startSize=40;fillColor=#f8cecc;horizontalStack=0;resizeParent=1;resizeParentMax=0;resizeLast=0;collapsible=1;marginBottom=0;strokeColor=#b85450;" parent="WTOQ7RgYzSvXcb4ZEk5k-0" vertex="1">
          <mxGeometry x="140" y="280" width="280" height="480" as="geometry">
            <mxRectangle x="200" y="280" width="280" height="40" as="alternateBounds" />
          </mxGeometry>
        </mxCell>
        <mxCell id="WTOQ7RgYzSvXcb4ZEk5k-59" value="处长" style="text;strokeColor=none;fillColor=none;align=center;verticalAlign=middle;spacingLeft=4;spacingRight=4;overflow=hidden;rotatable=0;points=[[0,0.5],[1,0.5]];portConstraint=eastwest;" parent="WTOQ7RgYzSvXcb4ZEk5k-55" vertex="1">
          <mxGeometry y="40" width="280" height="40" as="geometry" />
        </mxCell>
        <mxCell id="WTOQ7RgYzSvXcb4ZEk5k-62" value="自动分卷" style="swimlane;startSize=40;fillColor=#d80073;strokeColor=#A50040;fontColor=#ffffff;separatorColor=none;" parent="WTOQ7RgYzSvXcb4ZEk5k-55" vertex="1">
          <mxGeometry y="80" width="280" height="400" as="geometry">
            <mxRectangle y="80" width="280" height="40" as="alternateBounds" />
          </mxGeometry>
        </mxCell>
        <mxCell id="WTOQ7RgYzSvXcb4ZEk5k-70" style="edgeStyle=orthogonalEdgeStyle;rounded=0;orthogonalLoop=1;jettySize=auto;html=1;exitX=0.5;exitY=1;exitDx=0;exitDy=0;strokeWidth=4;" parent="WTOQ7RgYzSvXcb4ZEk5k-62" source="WTOQ7RgYzSvXcb4ZEk5k-65" target="WTOQ7RgYzSvXcb4ZEk5k-69" edge="1">
          <mxGeometry relative="1" as="geometry" />
        </mxCell>
        <mxCell id="WTOQ7RgYzSvXcb4ZEk5k-71" style="edgeStyle=orthogonalEdgeStyle;rounded=0;orthogonalLoop=1;jettySize=auto;html=1;exitX=0.5;exitY=1;exitDx=0;exitDy=0;entryX=0.5;entryY=0;entryDx=0;entryDy=0;strokeWidth=4;" parent="WTOQ7RgYzSvXcb4ZEk5k-62" source="WTOQ7RgYzSvXcb4ZEk5k-69" target="WTOQ7RgYzSvXcb4ZEk5k-64" edge="1">
          <mxGeometry relative="1" as="geometry">
            <Array as="points">
              <mxPoint x="140" y="170" />
              <mxPoint x="70" y="170" />
            </Array>
          </mxGeometry>
        </mxCell>
        <mxCell id="WTOQ7RgYzSvXcb4ZEk5k-73" style="edgeStyle=orthogonalEdgeStyle;rounded=0;orthogonalLoop=1;jettySize=auto;html=1;exitX=0.5;exitY=1;exitDx=0;exitDy=0;strokeWidth=4;" parent="WTOQ7RgYzSvXcb4ZEk5k-62" source="WTOQ7RgYzSvXcb4ZEk5k-64" target="WTOQ7RgYzSvXcb4ZEk5k-72" edge="1">
          <mxGeometry relative="1" as="geometry" />
        </mxCell>
        <mxCell id="WTOQ7RgYzSvXcb4ZEk5k-76" style="edgeStyle=orthogonalEdgeStyle;rounded=0;orthogonalLoop=1;jettySize=auto;html=1;exitX=1;exitY=0.5;exitDx=0;exitDy=0;entryX=0;entryY=0.5;entryDx=0;entryDy=0;strokeWidth=4;" parent="WTOQ7RgYzSvXcb4ZEk5k-62" source="WTOQ7RgYzSvXcb4ZEk5k-64" target="WTOQ7RgYzSvXcb4ZEk5k-75" edge="1">
          <mxGeometry relative="1" as="geometry" />
        </mxCell>
        <mxCell id="WTOQ7RgYzSvXcb4ZEk5k-65" value="开始" style="shape=parallelogram;html=1;strokeWidth=2;perimeter=parallelogramPerimeter;whiteSpace=wrap;rounded=1;arcSize=12;size=0.23;" parent="WTOQ7RgYzSvXcb4ZEk5k-62" vertex="1">
          <mxGeometry x="90" y="40" width="100" height="40" as="geometry" />
        </mxCell>
        <mxCell id="WTOQ7RgYzSvXcb4ZEk5k-69" value="读取案卷各&lt;br&gt;办理人信息" style="rounded=0;whiteSpace=wrap;html=1;" parent="WTOQ7RgYzSvXcb4ZEk5k-62" vertex="1">
          <mxGeometry x="90" y="120" width="100" height="40" as="geometry" />
        </mxCell>
        <mxCell id="WTOQ7RgYzSvXcb4ZEk5k-75" value="补全案卷&lt;br&gt;办理人信息" style="rounded=0;whiteSpace=wrap;html=1;" parent="WTOQ7RgYzSvXcb4ZEk5k-62" vertex="1">
          <mxGeometry x="160" y="200" width="100" height="40" as="geometry" />
        </mxCell>
        <mxCell id="WTOQ7RgYzSvXcb4ZEk5k-64" value="判断信息&lt;br&gt;是否完整" style="rhombus;whiteSpace=wrap;html=1;" parent="WTOQ7RgYzSvXcb4ZEk5k-62" vertex="1">
          <mxGeometry x="20" y="200" width="100" height="40" as="geometry" />
        </mxCell>
        <mxCell id="WTOQ7RgYzSvXcb4ZEk5k-77" value="否" style="text;html=1;strokeColor=none;fillColor=none;align=center;verticalAlign=middle;whiteSpace=wrap;rounded=0;" parent="WTOQ7RgYzSvXcb4ZEk5k-62" vertex="1">
          <mxGeometry x="120" y="223" width="30" height="20" as="geometry" />
        </mxCell>
        <mxCell id="WTOQ7RgYzSvXcb4ZEk5k-79" value="" style="edgeStyle=orthogonalEdgeStyle;rounded=0;orthogonalLoop=1;jettySize=auto;html=1;strokeWidth=4;" parent="WTOQ7RgYzSvXcb4ZEk5k-62" source="WTOQ7RgYzSvXcb4ZEk5k-75" target="WTOQ7RgYzSvXcb4ZEk5k-78" edge="1">
          <mxGeometry relative="1" as="geometry" />
        </mxCell>
        <mxCell id="WTOQ7RgYzSvXcb4ZEk5k-82" style="edgeStyle=orthogonalEdgeStyle;rounded=0;orthogonalLoop=1;jettySize=auto;html=1;exitX=0.5;exitY=1;exitDx=0;exitDy=0;entryX=0.5;entryY=0;entryDx=0;entryDy=0;entryPerimeter=0;strokeWidth=4;" parent="WTOQ7RgYzSvXcb4ZEk5k-62" source="WTOQ7RgYzSvXcb4ZEk5k-78" target="WTOQ7RgYzSvXcb4ZEk5k-80" edge="1">
          <mxGeometry relative="1" as="geometry">
            <Array as="points">
              <mxPoint x="210" y="330" />
              <mxPoint x="140" y="330" />
            </Array>
          </mxGeometry>
        </mxCell>
        <mxCell id="WTOQ7RgYzSvXcb4ZEk5k-81" style="edgeStyle=orthogonalEdgeStyle;rounded=0;orthogonalLoop=1;jettySize=auto;html=1;exitX=0.5;exitY=1;exitDx=0;exitDy=0;entryX=0.5;entryY=0;entryDx=0;entryDy=0;entryPerimeter=0;strokeWidth=4;" parent="WTOQ7RgYzSvXcb4ZEk5k-62" source="WTOQ7RgYzSvXcb4ZEk5k-72" target="WTOQ7RgYzSvXcb4ZEk5k-80" edge="1">
          <mxGeometry relative="1" as="geometry">
            <Array as="points">
              <mxPoint x="70" y="330" />
              <mxPoint x="140" y="330" />
            </Array>
          </mxGeometry>
        </mxCell>
        <mxCell id="WTOQ7RgYzSvXcb4ZEk5k-74" value="是" style="text;html=1;strokeColor=none;fillColor=none;align=center;verticalAlign=middle;whiteSpace=wrap;rounded=0;" parent="WTOQ7RgYzSvXcb4ZEk5k-62" vertex="1">
          <mxGeometry x="40" y="243" width="30" height="20" as="geometry" />
        </mxCell>
        <mxCell id="WTOQ7RgYzSvXcb4ZEk5k-78" value="手动分卷" style="rounded=0;whiteSpace=wrap;html=1;" parent="WTOQ7RgYzSvXcb4ZEk5k-62" vertex="1">
          <mxGeometry x="160" y="280" width="100" height="40" as="geometry" />
        </mxCell>
        <mxCell id="WTOQ7RgYzSvXcb4ZEk5k-72" value="自动分卷" style="rounded=0;whiteSpace=wrap;html=1;" parent="WTOQ7RgYzSvXcb4ZEk5k-62" vertex="1">
          <mxGeometry x="20" y="280" width="100" height="40" as="geometry" />
        </mxCell>
        <mxCell id="WTOQ7RgYzSvXcb4ZEk5k-80" value="结束" style="strokeWidth=2;html=1;shape=mxgraph.flowchart.start_1;whiteSpace=wrap;align=center;" parent="WTOQ7RgYzSvXcb4ZEk5k-62" vertex="1">
          <mxGeometry x="90" y="360" width="100" height="40" as="geometry" />
        </mxCell>
        <mxCell id="q9Dw7c0gLZ24XJoEXtp0-53" value="图纸深度审查" style="swimlane;fontStyle=0;childLayout=stackLayout;horizontal=1;startSize=40;fillColor=#ffcccc;horizontalStack=0;resizeParent=1;resizeParentMax=0;resizeLast=0;collapsible=1;marginBottom=0;strokeColor=#36393d;verticalAlign=middle;" parent="WTOQ7RgYzSvXcb4ZEk5k-0" vertex="1">
          <mxGeometry x="400" y="800" width="120" height="80" as="geometry">
            <mxRectangle x="400" y="800" width="120" height="40" as="alternateBounds" />
          </mxGeometry>
        </mxCell>
        <mxCell id="q9Dw7c0gLZ24XJoEXtp0-54" value="信息中心办理" style="text;strokeColor=none;fillColor=none;align=center;verticalAlign=top;spacingLeft=4;spacingRight=4;overflow=hidden;rotatable=0;points=[[0,0.5],[1,0.5]];portConstraint=eastwest;" parent="q9Dw7c0gLZ24XJoEXtp0-53" vertex="1">
          <mxGeometry y="40" width="120" height="40" as="geometry" />
        </mxCell>
        <mxCell id="q9Dw7c0gLZ24XJoEXtp0-24" value="图纸放线预审" style="swimlane;fontStyle=0;childLayout=stackLayout;horizontal=1;startSize=40;fillColor=#ffcccc;horizontalStack=0;resizeParent=1;resizeParentMax=0;resizeLast=0;collapsible=1;marginBottom=0;strokeColor=#36393d;" parent="WTOQ7RgYzSvXcb4ZEk5k-0" vertex="1">
          <mxGeometry x="280" y="800" width="120" height="80" as="geometry">
            <mxRectangle x="280" y="800" width="120" height="40" as="alternateBounds" />
          </mxGeometry>
        </mxCell>
        <mxCell id="q9Dw7c0gLZ24XJoEXtp0-25" value="长勘院办理" style="text;strokeColor=none;fillColor=none;align=center;verticalAlign=middle;spacingLeft=4;spacingRight=4;overflow=hidden;rotatable=0;points=[[0,0.5],[1,0.5]];portConstraint=eastwest;" parent="q9Dw7c0gLZ24XJoEXtp0-24" vertex="1">
          <mxGeometry y="40" width="120" height="40" as="geometry" />
        </mxCell>
        <mxCell id="q9Dw7c0gLZ24XJoEXtp0-34" value="中介机构技术审查" style="swimlane;fontStyle=0;childLayout=stackLayout;horizontal=1;startSize=40;fillColor=#ffcccc;horizontalStack=0;resizeParent=1;resizeParentMax=0;resizeLast=0;collapsible=1;marginBottom=0;strokeColor=#36393d;autosize=1;backgroundOutline=1;" parent="WTOQ7RgYzSvXcb4ZEk5k-0" vertex="1">
          <mxGeometry x="160" y="800" width="120" height="80" as="geometry">
            <mxRectangle x="160" y="800" width="120" height="40" as="alternateBounds" />
          </mxGeometry>
        </mxCell>
        <mxCell id="q9Dw7c0gLZ24XJoEXtp0-35" value="长勘院或信息中心" style="text;strokeColor=none;fillColor=none;align=center;verticalAlign=middle;spacingLeft=4;spacingRight=4;overflow=hidden;rotatable=0;points=[[0,0.5],[1,0.5]];portConstraint=eastwest;" parent="q9Dw7c0gLZ24XJoEXtp0-34" vertex="1">
          <mxGeometry y="40" width="120" height="40" as="geometry" />
        </mxCell>
        <mxCell id="q9Dw7c0gLZ24XJoEXtp0-51" value="处室经办人政策审查" style="swimlane;fontStyle=0;childLayout=stackLayout;horizontal=1;startSize=40;fillColor=#ffcccc;horizontalStack=0;resizeParent=1;resizeParentMax=0;resizeLast=0;collapsible=1;marginBottom=0;strokeColor=#36393d;" parent="WTOQ7RgYzSvXcb4ZEk5k-0" vertex="1">
          <mxGeometry x="40" y="800" width="120" height="80" as="geometry">
            <mxRectangle x="40" y="800" width="120" height="40" as="alternateBounds" />
          </mxGeometry>
        </mxCell>
        <mxCell id="q9Dw7c0gLZ24XJoEXtp0-52" value="处室经办人" style="text;strokeColor=none;fillColor=none;align=center;verticalAlign=middle;spacingLeft=4;spacingRight=4;overflow=hidden;rotatable=0;points=[[0,0.5],[1,0.5]];portConstraint=eastwest;" parent="q9Dw7c0gLZ24XJoEXtp0-51" vertex="1">
          <mxGeometry y="40" width="120" height="40" as="geometry" />
        </mxCell>
        <mxCell id="WTOQ7RgYzSvXcb4ZEk5k-7" value="案卷合并" style="swimlane;fontStyle=0;childLayout=stackLayout;horizontal=1;startSize=40;fillColor=#ffcccc;horizontalStack=0;resizeParent=1;resizeParentMax=0;resizeLast=0;collapsible=1;marginBottom=0;strokeColor=#36393d;" parent="WTOQ7RgYzSvXcb4ZEk5k-0" vertex="1">
          <mxGeometry x="220" y="920" width="120" height="80" as="geometry">
            <mxRectangle x="220" y="920" width="120" height="40" as="alternateBounds" />
          </mxGeometry>
        </mxCell>
        <mxCell id="WTOQ7RgYzSvXcb4ZEk5k-8" value="处长" style="text;strokeColor=none;fillColor=none;align=center;verticalAlign=middle;spacingLeft=4;spacingRight=4;overflow=hidden;rotatable=0;points=[[0,0.5],[1,0.5]];portConstraint=eastwest;" parent="WTOQ7RgYzSvXcb4ZEk5k-7" vertex="1">
          <mxGeometry y="40" width="120" height="40" as="geometry" />
        </mxCell>
        <mxCell id="q9Dw7c0gLZ24XJoEXtp0-58" value="处长审核" style="swimlane;fontStyle=0;childLayout=stackLayout;horizontal=1;startSize=40;fillColor=#ffcccc;horizontalStack=0;resizeParent=1;resizeParentMax=0;resizeLast=0;collapsible=1;marginBottom=0;strokeColor=#36393d;" parent="WTOQ7RgYzSvXcb4ZEk5k-0" vertex="1">
          <mxGeometry x="220" y="1000" width="120" height="80" as="geometry">
            <mxRectangle x="220" y="1000" width="120" height="40" as="alternateBounds" />
          </mxGeometry>
        </mxCell>
        <mxCell id="q9Dw7c0gLZ24XJoEXtp0-59" value="处长" style="text;strokeColor=none;fillColor=none;align=center;verticalAlign=top;spacingLeft=4;spacingRight=4;overflow=hidden;rotatable=0;points=[[0,0.5],[1,0.5]];portConstraint=eastwest;" parent="q9Dw7c0gLZ24XJoEXtp0-58" vertex="1">
          <mxGeometry y="40" width="120" height="40" as="geometry" />
        </mxCell>
        <mxCell id="q9Dw7c0gLZ24XJoEXtp0-55" value="领导审批" style="swimlane;fontStyle=0;childLayout=stackLayout;horizontal=1;startSize=40;fillColor=#ffcccc;horizontalStack=0;resizeParent=1;resizeParentMax=0;resizeLast=0;collapsible=1;marginBottom=0;strokeColor=#36393d;verticalAlign=middle;" parent="WTOQ7RgYzSvXcb4ZEk5k-0" vertex="1">
          <mxGeometry x="220" y="1120" width="120" height="80" as="geometry">
            <mxRectangle x="220" y="1120" width="120" height="40" as="alternateBounds" />
          </mxGeometry>
        </mxCell>
        <mxCell id="q9Dw7c0gLZ24XJoEXtp0-56" value="局领导" style="text;strokeColor=none;fillColor=none;align=center;verticalAlign=middle;spacingLeft=4;spacingRight=4;overflow=hidden;rotatable=0;points=[[0,0.5],[1,0.5]];portConstraint=eastwest;" parent="q9Dw7c0gLZ24XJoEXtp0-55" vertex="1">
          <mxGeometry y="40" width="120" height="40" as="geometry" />
        </mxCell>
        <mxCell id="q9Dw7c0gLZ24XJoEXtp0-61" value="经办人整理" style="swimlane;fontStyle=0;childLayout=stackLayout;horizontal=1;startSize=40;fillColor=#ffcccc;horizontalStack=0;resizeParent=1;resizeParentMax=0;resizeLast=0;collapsible=1;marginBottom=0;strokeColor=#36393d;" parent="WTOQ7RgYzSvXcb4ZEk5k-0" vertex="1">
          <mxGeometry x="220" y="1240" width="120" height="80" as="geometry">
            <mxRectangle x="220" y="1240" width="120" height="40" as="alternateBounds" />
          </mxGeometry>
        </mxCell>
        <mxCell id="q9Dw7c0gLZ24XJoEXtp0-62" value="处室经办人" style="text;strokeColor=none;fillColor=none;align=center;verticalAlign=middle;spacingLeft=4;spacingRight=4;overflow=hidden;rotatable=0;points=[[0,0.5],[1,0.5]];portConstraint=eastwest;" parent="q9Dw7c0gLZ24XJoEXtp0-61" vertex="1">
          <mxGeometry y="40" width="120" height="40" as="geometry" />
        </mxCell>
        <mxCell id="q9Dw7c0gLZ24XJoEXtp0-131" value="案卷出窗" style="swimlane;fontStyle=0;childLayout=stackLayout;horizontal=1;startSize=40;fillColor=#ffcccc;horizontalStack=0;resizeParent=1;resizeParentMax=0;resizeLast=0;collapsible=1;marginBottom=0;strokeColor=#36393d;" parent="WTOQ7RgYzSvXcb4ZEk5k-0" vertex="1">
          <mxGeometry x="220" y="1360" width="120" height="80" as="geometry">
            <mxRectangle x="220" y="1360" width="120" height="40" as="alternateBounds" />
          </mxGeometry>
        </mxCell>
        <mxCell id="q9Dw7c0gLZ24XJoEXtp0-132" value="政务中心窗口" style="text;strokeColor=none;fillColor=none;align=center;verticalAlign=middle;spacingLeft=4;spacingRight=4;overflow=hidden;rotatable=0;points=[[0,0.5],[1,0.5]];portConstraint=eastwest;" parent="q9Dw7c0gLZ24XJoEXtp0-131" vertex="1">
          <mxGeometry y="40" width="120" height="40" as="geometry" />
        </mxCell>
        <mxCell id="q9Dw7c0gLZ24XJoEXtp0-171" style="edgeStyle=orthogonalEdgeStyle;rounded=0;orthogonalLoop=1;jettySize=auto;html=1;exitX=0.5;exitY=1;exitDx=0;exitDy=0;entryX=0.5;entryY=0;entryDx=0;entryDy=0;strokeWidth=4;" parent="WTOQ7RgYzSvXcb4ZEk5k-0" source="q9Dw7c0gLZ24XJoEXtp0-170" target="q9Dw7c0gLZ24XJoEXtp0-10" edge="1">
          <mxGeometry relative="1" as="geometry" />
        </mxCell>
        <mxCell id="q9Dw7c0gLZ24XJoEXtp0-170" value="开始" style="shape=parallelogram;html=1;strokeWidth=2;perimeter=parallelogramPerimeter;whiteSpace=wrap;rounded=1;arcSize=12;size=0.23;align=center;" parent="WTOQ7RgYzSvXcb4ZEk5k-0" vertex="1">
          <mxGeometry x="220" y="80" width="120" height="40" as="geometry" />
        </mxCell>
        <mxCell id="WTOQ7RgYzSvXcb4ZEk5k-37" style="edgeStyle=orthogonalEdgeStyle;rounded=0;orthogonalLoop=1;jettySize=auto;html=1;exitX=0.5;exitY=1;exitDx=0;exitDy=0;strokeWidth=4;entryX=0.5;entryY=0;entryDx=0;entryDy=0;" parent="WTOQ7RgYzSvXcb4ZEk5k-0" source="q9Dw7c0gLZ24XJoEXtp0-53" target="WTOQ7RgYzSvXcb4ZEk5k-7" edge="1">
          <mxGeometry relative="1" as="geometry">
            <mxPoint x="260" y="1010" as="targetPoint" />
            <Array as="points">
              <mxPoint x="460" y="890" />
              <mxPoint x="280" y="890" />
            </Array>
          </mxGeometry>
        </mxCell>
        <mxCell id="WTOQ7RgYzSvXcb4ZEk5k-36" style="edgeStyle=orthogonalEdgeStyle;rounded=0;orthogonalLoop=1;jettySize=auto;html=1;exitX=0.5;exitY=1;exitDx=0;exitDy=0;strokeWidth=4;entryX=0.5;entryY=0;entryDx=0;entryDy=0;" parent="WTOQ7RgYzSvXcb4ZEk5k-0" source="q9Dw7c0gLZ24XJoEXtp0-24" target="WTOQ7RgYzSvXcb4ZEk5k-7" edge="1">
          <mxGeometry relative="1" as="geometry">
            <mxPoint x="260" y="1010" as="targetPoint" />
            <Array as="points">
              <mxPoint x="340" y="890" />
              <mxPoint x="280" y="890" />
            </Array>
          </mxGeometry>
        </mxCell>
        <mxCell id="WTOQ7RgYzSvXcb4ZEk5k-35" style="edgeStyle=orthogonalEdgeStyle;rounded=0;orthogonalLoop=1;jettySize=auto;html=1;exitX=0.5;exitY=1;exitDx=0;exitDy=0;entryX=0.5;entryY=0;entryDx=0;entryDy=0;strokeWidth=4;" parent="WTOQ7RgYzSvXcb4ZEk5k-0" source="q9Dw7c0gLZ24XJoEXtp0-34" target="WTOQ7RgYzSvXcb4ZEk5k-7" edge="1">
          <mxGeometry relative="1" as="geometry">
            <Array as="points">
              <mxPoint x="220" y="890" />
              <mxPoint x="280" y="890" />
            </Array>
          </mxGeometry>
        </mxCell>
        <mxCell id="WTOQ7RgYzSvXcb4ZEk5k-34" style="edgeStyle=orthogonalEdgeStyle;rounded=0;orthogonalLoop=1;jettySize=auto;html=1;exitX=0.5;exitY=1;exitDx=0;exitDy=0;entryX=0.5;entryY=0;entryDx=0;entryDy=0;strokeWidth=4;" parent="WTOQ7RgYzSvXcb4ZEk5k-0" source="q9Dw7c0gLZ24XJoEXtp0-51" target="WTOQ7RgYzSvXcb4ZEk5k-7" edge="1">
          <mxGeometry relative="1" as="geometry">
            <Array as="points">
              <mxPoint x="100" y="890" />
              <mxPoint x="280" y="890" />
            </Array>
          </mxGeometry>
        </mxCell>
        <mxCell id="WTOQ7RgYzSvXcb4ZEk5k-45" style="edgeStyle=orthogonalEdgeStyle;rounded=0;orthogonalLoop=1;jettySize=auto;html=1;entryX=0.5;entryY=0;entryDx=0;entryDy=0;strokeWidth=4;exitX=0.5;exitY=1;exitDx=0;exitDy=0;" parent="WTOQ7RgYzSvXcb4ZEk5k-0" source="WTOQ7RgYzSvXcb4ZEk5k-55" target="q9Dw7c0gLZ24XJoEXtp0-51" edge="1">
          <mxGeometry relative="1" as="geometry">
            <mxPoint x="280" y="830" as="sourcePoint" />
            <Array as="points">
              <mxPoint x="280" y="770" />
              <mxPoint x="100" y="770" />
            </Array>
          </mxGeometry>
        </mxCell>
        <mxCell id="WTOQ7RgYzSvXcb4ZEk5k-46" style="edgeStyle=orthogonalEdgeStyle;rounded=0;orthogonalLoop=1;jettySize=auto;html=1;exitX=0.5;exitY=1;exitDx=0;exitDy=0;entryX=0.5;entryY=0;entryDx=0;entryDy=0;strokeWidth=4;" parent="WTOQ7RgYzSvXcb4ZEk5k-0" source="WTOQ7RgYzSvXcb4ZEk5k-55" target="q9Dw7c0gLZ24XJoEXtp0-34" edge="1">
          <mxGeometry relative="1" as="geometry">
            <mxPoint x="280" y="830" as="sourcePoint" />
            <Array as="points">
              <mxPoint x="280" y="770" />
              <mxPoint x="220" y="770" />
            </Array>
          </mxGeometry>
        </mxCell>
        <mxCell id="WTOQ7RgYzSvXcb4ZEk5k-47" style="edgeStyle=orthogonalEdgeStyle;rounded=0;orthogonalLoop=1;jettySize=auto;html=1;exitX=0.5;exitY=1;exitDx=0;exitDy=0;entryX=0.5;entryY=0;entryDx=0;entryDy=0;strokeWidth=4;" parent="WTOQ7RgYzSvXcb4ZEk5k-0" source="WTOQ7RgYzSvXcb4ZEk5k-55" target="q9Dw7c0gLZ24XJoEXtp0-24" edge="1">
          <mxGeometry relative="1" as="geometry">
            <mxPoint x="280" y="830" as="sourcePoint" />
            <Array as="points">
              <mxPoint x="280" y="770" />
              <mxPoint x="340" y="770" />
            </Array>
          </mxGeometry>
        </mxCell>
        <mxCell id="WTOQ7RgYzSvXcb4ZEk5k-48" style="edgeStyle=orthogonalEdgeStyle;rounded=0;orthogonalLoop=1;jettySize=auto;html=1;exitX=0.5;exitY=1;exitDx=0;exitDy=0;entryX=0.5;entryY=0;entryDx=0;entryDy=0;strokeWidth=4;" parent="WTOQ7RgYzSvXcb4ZEk5k-0" source="WTOQ7RgYzSvXcb4ZEk5k-55" target="q9Dw7c0gLZ24XJoEXtp0-53" edge="1">
          <mxGeometry relative="1" as="geometry">
            <mxPoint x="280" y="830" as="sourcePoint" />
            <Array as="points">
              <mxPoint x="280" y="770" />
              <mxPoint x="460" y="770" />
            </Array>
          </mxGeometry>
        </mxCell>
        <mxCell id="q9Dw7c0gLZ24XJoEXtp0-79" style="edgeStyle=orthogonalEdgeStyle;rounded=0;orthogonalLoop=1;jettySize=auto;html=1;exitX=0.5;exitY=1;exitDx=0;exitDy=0;strokeWidth=4;" parent="WTOQ7RgYzSvXcb4ZEk5k-0" source="q9Dw7c0gLZ24XJoEXtp0-58" target="q9Dw7c0gLZ24XJoEXtp0-55" edge="1">
          <mxGeometry relative="1" as="geometry" />
        </mxCell>
        <mxCell id="q9Dw7c0gLZ24XJoEXtp0-80" style="edgeStyle=orthogonalEdgeStyle;rounded=0;orthogonalLoop=1;jettySize=auto;html=1;exitX=0.5;exitY=1;exitDx=0;exitDy=0;strokeWidth=4;" parent="WTOQ7RgYzSvXcb4ZEk5k-0" source="q9Dw7c0gLZ24XJoEXtp0-55" target="q9Dw7c0gLZ24XJoEXtp0-61" edge="1">
          <mxGeometry relative="1" as="geometry" />
        </mxCell>
        <mxCell id="q9Dw7c0gLZ24XJoEXtp0-153" style="edgeStyle=orthogonalEdgeStyle;rounded=0;orthogonalLoop=1;jettySize=auto;html=1;exitX=0.5;exitY=1;exitDx=0;exitDy=0;strokeWidth=4;" parent="WTOQ7RgYzSvXcb4ZEk5k-0" source="q9Dw7c0gLZ24XJoEXtp0-61" target="q9Dw7c0gLZ24XJoEXtp0-131" edge="1">
          <mxGeometry relative="1" as="geometry" />
        </mxCell>
        <mxCell id="WTOQ7RgYzSvXcb4ZEk5k-102" style="edgeStyle=orthogonalEdgeStyle;rounded=0;orthogonalLoop=1;jettySize=auto;html=1;exitX=0.5;exitY=1;exitDx=0;exitDy=0;entryX=0.5;entryY=0;entryDx=0;entryDy=0;strokeWidth=4;" parent="WTOQ7RgYzSvXcb4ZEk5k-0" source="q9Dw7c0gLZ24XJoEXtp0-131" target="q9Dw7c0gLZ24XJoEXtp0-247" edge="1">
          <mxGeometry relative="1" as="geometry" />
        </mxCell>
        <mxCell id="q9Dw7c0gLZ24XJoEXtp0-247" value="批后公布" style="swimlane;fontStyle=0;childLayout=stackLayout;horizontal=1;startSize=40;fillColor=#ffcccc;horizontalStack=0;resizeParent=1;resizeParentMax=0;resizeLast=0;collapsible=1;marginBottom=0;strokeColor=#36393d;" parent="WTOQ7RgYzSvXcb4ZEk5k-0" vertex="1">
          <mxGeometry x="220" y="1480" width="120" height="80" as="geometry">
            <mxRectangle x="220" y="1480" width="120" height="40" as="alternateBounds" />
          </mxGeometry>
        </mxCell>
        <mxCell id="q9Dw7c0gLZ24XJoEXtp0-248" value="信息中心内勤" style="text;strokeColor=none;fillColor=none;align=center;verticalAlign=middle;spacingLeft=4;spacingRight=4;overflow=hidden;rotatable=0;points=[[0,0.5],[1,0.5]];portConstraint=eastwest;" parent="q9Dw7c0gLZ24XJoEXtp0-247" vertex="1">
          <mxGeometry y="40" width="120" height="40" as="geometry" />
        </mxCell>
        <mxCell id="q9Dw7c0gLZ24XJoEXtp0-172" value="结束" style="strokeWidth=2;html=1;shape=mxgraph.flowchart.start_1;whiteSpace=wrap;align=center;" parent="WTOQ7RgYzSvXcb4ZEk5k-0" vertex="1">
          <mxGeometry x="220" y="1600" width="120" height="40" as="geometry" />
        </mxCell>
        <mxCell id="q9Dw7c0gLZ24XJoEXtp0-303" style="edgeStyle=orthogonalEdgeStyle;rounded=0;orthogonalLoop=1;jettySize=auto;html=1;strokeWidth=4;entryX=0.5;entryY=0;entryDx=0;entryDy=0;entryPerimeter=0;" parent="WTOQ7RgYzSvXcb4ZEk5k-0" source="q9Dw7c0gLZ24XJoEXtp0-247" target="q9Dw7c0gLZ24XJoEXtp0-172" edge="1">
          <mxGeometry relative="1" as="geometry">
            <mxPoint x="210" y="1623.5" as="sourcePoint" />
            <mxPoint x="450" y="1620" as="targetPoint" />
            <Array as="points" />
          </mxGeometry>
        </mxCell>
        <mxCell id="q9Dw7c0gLZ24XJoEXtp0-243" value="" style="endArrow=none;html=1;strokeWidth=8;fillColor=none;strokeColor=#878787;" parent="WIyWlLk6GJQsqaUBKTNV-1" edge="1">
          <mxGeometry width="50" height="50" relative="1" as="geometry">
            <mxPoint x="2090" y="2220" as="sourcePoint" />
            <mxPoint x="2090" y="-280" as="targetPoint" />
          </mxGeometry>
        </mxCell>
        <mxCell id="q9Dw7c0gLZ24XJoEXtp0-214" style="edgeStyle=orthogonalEdgeStyle;rounded=0;orthogonalLoop=1;jettySize=auto;html=1;exitX=0.5;exitY=1;exitDx=0;exitDy=0;entryX=0.5;entryY=0;entryDx=0;entryDy=0;strokeWidth=4;" parent="WIyWlLk6GJQsqaUBKTNV-1" source="q9Dw7c0gLZ24XJoEXtp0-215" target="q9Dw7c0gLZ24XJoEXtp0-212" edge="1">
          <mxGeometry relative="1" as="geometry" />
        </mxCell>
        <mxCell id="q9Dw7c0gLZ24XJoEXtp0-215" value="开始" style="shape=parallelogram;html=1;strokeWidth=2;perimeter=parallelogramPerimeter;whiteSpace=wrap;rounded=1;arcSize=12;size=0.23;align=center;" parent="WIyWlLk6GJQsqaUBKTNV-1" vertex="1">
          <mxGeometry x="2260" y="-40" width="120" height="50" as="geometry" />
        </mxCell>
        <mxCell id="q9Dw7c0gLZ24XJoEXtp0-232" style="edgeStyle=orthogonalEdgeStyle;rounded=0;orthogonalLoop=1;jettySize=auto;html=1;entryX=0.5;entryY=0;entryDx=0;entryDy=0;strokeWidth=4;exitX=0.5;exitY=1;exitDx=0;exitDy=0;" parent="WIyWlLk6GJQsqaUBKTNV-1" source="q9Dw7c0gLZ24XJoEXtp0-212" target="q9Dw7c0gLZ24XJoEXtp0-224" edge="1">
          <mxGeometry relative="1" as="geometry">
            <mxPoint x="2430" y="440" as="sourcePoint" />
            <mxPoint x="2280" y="300" as="targetPoint" />
          </mxGeometry>
        </mxCell>
        <mxCell id="q9Dw7c0gLZ24XJoEXtp0-233" style="edgeStyle=orthogonalEdgeStyle;rounded=0;orthogonalLoop=1;jettySize=auto;html=1;entryX=0.5;entryY=0;entryDx=0;entryDy=0;strokeWidth=4;exitX=0.493;exitY=1.055;exitDx=0;exitDy=0;exitPerimeter=0;" parent="WIyWlLk6GJQsqaUBKTNV-1" source="q9Dw7c0gLZ24XJoEXtp0-225" target="q9Dw7c0gLZ24XJoEXtp0-227" edge="1">
          <mxGeometry relative="1" as="geometry">
            <mxPoint x="2360" y="605" as="sourcePoint" />
            <mxPoint x="2360" y="964" as="targetPoint" />
            <Array as="points">
              <mxPoint x="2319" y="781" />
            </Array>
          </mxGeometry>
        </mxCell>
        <mxCell id="q9Dw7c0gLZ24XJoEXtp0-105" value="图纸（PDF）" style="swimlane;fontStyle=0;childLayout=stackLayout;horizontal=1;startSize=40;fillColor=#f8cecc;horizontalStack=0;resizeParent=1;resizeParentMax=0;resizeLast=0;collapsible=1;marginBottom=0;align=center;html=0;strokeColor=#b85450;" parent="WIyWlLk6GJQsqaUBKTNV-1" vertex="1">
          <mxGeometry x="1360.41" y="-560" width="240" height="120" as="geometry">
            <mxRectangle x="1360.41" y="-560" width="240" height="40" as="alternateBounds" />
          </mxGeometry>
        </mxCell>
        <mxCell id="q9Dw7c0gLZ24XJoEXtp0-107" value="规划总平面图(PDF)" style="shape=note;whiteSpace=wrap;html=1;backgroundOutline=1;darkOpacity=0.05;align=center;size=16;" parent="q9Dw7c0gLZ24XJoEXtp0-105" vertex="1">
          <mxGeometry y="40" width="240" height="40" as="geometry" />
        </mxCell>
        <mxCell id="q9Dw7c0gLZ24XJoEXtp0-106" value="单体方案文件(PDF)" style="shape=note;whiteSpace=wrap;html=1;backgroundOutline=1;darkOpacity=0.05;align=center;size=16;" parent="q9Dw7c0gLZ24XJoEXtp0-105" vertex="1">
          <mxGeometry y="80" width="240" height="40" as="geometry" />
        </mxCell>
        <mxCell id="q9Dw7c0gLZ24XJoEXtp0-236" value="结束" style="strokeWidth=2;html=1;shape=mxgraph.flowchart.start_1;whiteSpace=wrap;align=center;" parent="WIyWlLk6GJQsqaUBKTNV-1" vertex="1">
          <mxGeometry x="2260" y="1360" width="120" height="60" as="geometry" />
        </mxCell>
        <mxCell id="q9Dw7c0gLZ24XJoEXtp0-238" style="edgeStyle=orthogonalEdgeStyle;rounded=0;orthogonalLoop=1;jettySize=auto;html=1;strokeWidth=4;exitX=0.5;exitY=1;exitDx=0;exitDy=0;entryX=0.5;entryY=0;entryDx=0;entryDy=0;entryPerimeter=0;" parent="WIyWlLk6GJQsqaUBKTNV-1" source="q9Dw7c0gLZ24XJoEXtp0-227" target="q9Dw7c0gLZ24XJoEXtp0-236" edge="1">
          <mxGeometry relative="1" as="geometry">
            <mxPoint x="2420" y="1064.9999999999998" as="sourcePoint" />
            <mxPoint x="2330" y="1360" as="targetPoint" />
            <Array as="points">
              <mxPoint x="2320" y="1120" />
              <mxPoint x="2320" y="1120" />
            </Array>
          </mxGeometry>
        </mxCell>
        <mxCell id="yhN4OXkpInR8AnbPl5Tl-6" value="文本（PDF）" style="swimlane;fontStyle=0;childLayout=stackLayout;horizontal=1;startSize=40;fillColor=#f8cecc;horizontalStack=0;resizeParent=1;resizeParentMax=0;resizeLast=0;collapsible=1;marginBottom=0;align=center;html=0;strokeColor=#b85450;" parent="WIyWlLk6GJQsqaUBKTNV-1" vertex="1">
          <mxGeometry x="1359.96" y="-320" width="240" height="160" as="geometry">
            <mxRectangle x="1359.96" y="-280" width="240" height="40" as="alternateBounds" />
          </mxGeometry>
        </mxCell>
        <mxCell id="WTOQ7RgYzSvXcb4ZEk5k-14" value="规划设计条件书(PDF)" style="shape=note;whiteSpace=wrap;html=1;backgroundOutline=1;darkOpacity=0.05;align=center;size=16;" parent="yhN4OXkpInR8AnbPl5Tl-6" vertex="1">
          <mxGeometry y="40" width="240" height="40" as="geometry" />
        </mxCell>
        <mxCell id="yhN4OXkpInR8AnbPl5Tl-11" value="方案设计文本(PDF)" style="shape=note;whiteSpace=wrap;html=1;backgroundOutline=1;darkOpacity=0.05;align=center;size=16;" parent="yhN4OXkpInR8AnbPl5Tl-6" vertex="1">
          <mxGeometry y="80" width="240" height="40" as="geometry" />
        </mxCell>
        <mxCell id="WTOQ7RgYzSvXcb4ZEk5k-15" value="其他材料......(PDF)" style="shape=note;whiteSpace=wrap;html=1;backgroundOutline=1;darkOpacity=0.05;align=center;size=16;" parent="yhN4OXkpInR8AnbPl5Tl-6" vertex="1">
          <mxGeometry y="120" width="240" height="40" as="geometry" />
        </mxCell>
        <mxCell id="WTOQ7RgYzSvXcb4ZEk5k-371" style="edgeStyle=orthogonalEdgeStyle;rounded=0;orthogonalLoop=1;jettySize=auto;html=1;exitX=1;exitY=0.5;exitDx=0;exitDy=0;strokeWidth=4;fontSize=10;opacity=90;" parent="WIyWlLk6GJQsqaUBKTNV-1" source="WTOQ7RgYzSvXcb4ZEk5k-255" target="q9Dw7c0gLZ24XJoEXtp0-112" edge="1">
          <mxGeometry relative="1" as="geometry">
            <mxPoint x="1280" y="100" as="targetPoint" />
            <Array as="points">
              <mxPoint x="1230" y="100" />
              <mxPoint x="1230" y="100" />
            </Array>
          </mxGeometry>
        </mxCell>
        <mxCell id="WTOQ7RgYzSvXcb4ZEk5k-181" value="案卷办理人员信息" style="swimlane;fontStyle=0;childLayout=stackLayout;horizontal=1;startSize=40;fillColor=#f8cecc;horizontalStack=0;resizeParent=1;resizeParentMax=0;resizeLast=0;collapsible=1;marginBottom=0;align=center;html=0;strokeColor=#b85450;" parent="WIyWlLk6GJQsqaUBKTNV-1" vertex="1">
          <mxGeometry x="840" y="-200" width="240" height="120" as="geometry">
            <mxRectangle x="840" y="-280" width="240" height="40" as="alternateBounds" />
          </mxGeometry>
        </mxCell>
        <mxCell id="WTOQ7RgYzSvXcb4ZEk5k-182" value="政策性审查经办人" style="shape=card;whiteSpace=wrap;html=1;align=center;size=22;" parent="WTOQ7RgYzSvXcb4ZEk5k-181" vertex="1">
          <mxGeometry y="40" width="240" height="40" as="geometry" />
        </mxCell>
        <mxCell id="WTOQ7RgYzSvXcb4ZEk5k-183" value="技术审查单位" style="shape=card;whiteSpace=wrap;html=1;align=center;size=22;" parent="WTOQ7RgYzSvXcb4ZEk5k-181" vertex="1">
          <mxGeometry y="80" width="240" height="40" as="geometry" />
        </mxCell>
        <mxCell id="WTOQ7RgYzSvXcb4ZEk5k-171" value="案卷申报基础信息" style="swimlane;fontStyle=0;childLayout=stackLayout;horizontal=1;startSize=40;fillColor=#f8cecc;horizontalStack=0;resizeParent=1;resizeParentMax=0;resizeLast=0;collapsible=1;marginBottom=0;align=center;html=0;strokeColor=#b85450;" parent="WIyWlLk6GJQsqaUBKTNV-1" vertex="1">
          <mxGeometry x="840" y="-320" width="240" height="80" as="geometry">
            <mxRectangle x="840" y="-600" width="240" height="40" as="alternateBounds" />
          </mxGeometry>
        </mxCell>
        <mxCell id="WTOQ7RgYzSvXcb4ZEk5k-185" value="项目名称、申报单位、用地位置......" style="shape=card;whiteSpace=wrap;html=1;align=center;size=22;" parent="WTOQ7RgYzSvXcb4ZEk5k-171" vertex="1">
          <mxGeometry y="40" width="240" height="40" as="geometry" />
        </mxCell>
        <mxCell id="WTOQ7RgYzSvXcb4ZEk5k-186" value="案卷基本信息及索引信息" style="swimlane;fontStyle=0;childLayout=stackLayout;horizontal=1;startSize=40;fillColor=#f8cecc;horizontalStack=0;resizeParent=1;resizeParentMax=0;resizeLast=0;collapsible=1;marginBottom=0;align=center;html=0;strokeColor=#b85450;" parent="WIyWlLk6GJQsqaUBKTNV-1" vertex="1">
          <mxGeometry x="840.11" y="-560" width="240" height="160" as="geometry">
            <mxRectangle x="840" y="-600" width="240" height="40" as="alternateBounds" />
          </mxGeometry>
        </mxCell>
        <mxCell id="WTOQ7RgYzSvXcb4ZEk5k-187" value="方案咨询案卷编号" style="shape=card;whiteSpace=wrap;html=1;align=center;size=22;" parent="WTOQ7RgYzSvXcb4ZEk5k-186" vertex="1">
          <mxGeometry y="40" width="240" height="40" as="geometry" />
        </mxCell>
        <mxCell id="WTOQ7RgYzSvXcb4ZEk5k-189" value="方案审查案卷编号（历史）" style="shape=card;whiteSpace=wrap;html=1;align=center;size=22;" parent="WTOQ7RgYzSvXcb4ZEk5k-186" vertex="1">
          <mxGeometry y="80" width="240" height="40" as="geometry" />
        </mxCell>
        <mxCell id="WTOQ7RgYzSvXcb4ZEk5k-190" value="方案审查案卷编号" style="shape=card;whiteSpace=wrap;html=1;align=center;size=22;" parent="WTOQ7RgYzSvXcb4ZEk5k-186" vertex="1">
          <mxGeometry y="120" width="240" height="40" as="geometry" />
        </mxCell>
        <mxCell id="q9Dw7c0gLZ24XJoEXtp0-112" value="中介审查意见（PDF）" style="swimlane;fontStyle=0;childLayout=stackLayout;horizontal=1;startSize=40;fillColor=#f8cecc;horizontalStack=0;resizeParent=1;resizeParentMax=0;resizeLast=0;collapsible=1;marginBottom=0;align=center;html=0;strokeColor=#b85450;" parent="WIyWlLk6GJQsqaUBKTNV-1" vertex="1">
          <mxGeometry x="1360.41" y="80" width="240" height="80" as="geometry">
            <mxRectangle x="1360.41" y="80" width="240" height="40" as="alternateBounds" />
          </mxGeometry>
        </mxCell>
        <mxCell id="q9Dw7c0gLZ24XJoEXtp0-113" value="&lt;div&gt;技术审查报告(PDF)_盖章&lt;/div&gt;&lt;div&gt;（技术审查章）&lt;br&gt;&lt;/div&gt;" style="shape=note;whiteSpace=wrap;html=1;backgroundOutline=1;darkOpacity=0.05;align=center;size=16;" parent="q9Dw7c0gLZ24XJoEXtp0-112" vertex="1">
          <mxGeometry y="40" width="240" height="40" as="geometry" />
        </mxCell>
        <mxCell id="yhN4OXkpInR8AnbPl5Tl-0" value="图纸（DWG）" style="swimlane;fontStyle=0;childLayout=stackLayout;horizontal=1;startSize=40;fillColor=#f8cecc;horizontalStack=0;resizeParent=1;resizeParentMax=0;resizeLast=0;collapsible=1;marginBottom=0;align=center;html=0;strokeColor=#b85450;" parent="WIyWlLk6GJQsqaUBKTNV-1" vertex="1">
          <mxGeometry x="1360.41" y="-440" width="240" height="120" as="geometry">
            <mxRectangle x="1360.41" y="-440" width="240" height="40" as="alternateBounds" />
          </mxGeometry>
        </mxCell>
        <mxCell id="yhN4OXkpInR8AnbPl5Tl-2" value="规划总平面图(DWG)" style="shape=note;whiteSpace=wrap;html=1;backgroundOutline=1;darkOpacity=0.05;align=center;size=16;" parent="yhN4OXkpInR8AnbPl5Tl-0" vertex="1">
          <mxGeometry y="40" width="240" height="40" as="geometry" />
        </mxCell>
        <mxCell id="yhN4OXkpInR8AnbPl5Tl-1" value="单体方案文件(DWG)" style="shape=note;whiteSpace=wrap;html=1;backgroundOutline=1;darkOpacity=0.05;align=center;size=16;" parent="yhN4OXkpInR8AnbPl5Tl-0" vertex="1">
          <mxGeometry y="80" width="240" height="40" as="geometry" />
        </mxCell>
        <mxCell id="q9Dw7c0gLZ24XJoEXtp0-124" value="图纸（DWG）_盖章（现阶段）" style="swimlane;fontStyle=0;childLayout=stackLayout;horizontal=1;startSize=40;fillColor=#d5e8d4;horizontalStack=0;resizeParent=1;resizeParentMax=0;resizeLast=0;collapsible=1;marginBottom=0;align=center;html=0;strokeColor=#82b366;" parent="WIyWlLk6GJQsqaUBKTNV-1" vertex="1">
          <mxGeometry x="1359.46" y="-80" width="240" height="120" as="geometry">
            <mxRectangle x="1359.46" y="-80" width="240" height="40" as="alternateBounds" />
          </mxGeometry>
        </mxCell>
        <mxCell id="q9Dw7c0gLZ24XJoEXtp0-128" value="&lt;div&gt;规划总平面图(DWG)_盖章&lt;/div&gt;&lt;div&gt;（技术审查章）&lt;/div&gt;" style="shape=note;whiteSpace=wrap;html=1;backgroundOutline=1;darkOpacity=0.05;align=center;size=16;" parent="q9Dw7c0gLZ24XJoEXtp0-124" vertex="1">
          <mxGeometry y="40" width="240" height="40" as="geometry" />
        </mxCell>
        <mxCell id="q9Dw7c0gLZ24XJoEXtp0-126" value="&lt;div&gt;单体方案文件(DWG)_盖章&lt;/div&gt;&lt;div&gt;（技术审查章）&lt;/div&gt;" style="shape=note;whiteSpace=wrap;html=1;backgroundOutline=1;darkOpacity=0.05;align=center;size=16;" parent="q9Dw7c0gLZ24XJoEXtp0-124" vertex="1">
          <mxGeometry y="80" width="240" height="40" as="geometry" />
        </mxCell>
        <mxCell id="WTOQ7RgYzSvXcb4ZEk5k-343" value="放线核面意见_盖章" style="swimlane;fontStyle=0;childLayout=stackLayout;horizontal=1;startSize=40;fillColor=#f8cecc;horizontalStack=0;resizeParent=1;resizeParentMax=0;resizeLast=0;collapsible=1;marginBottom=0;align=center;html=0;strokeColor=#b85450;" parent="WIyWlLk6GJQsqaUBKTNV-1" vertex="1">
          <mxGeometry x="1360.41" y="280" width="240" height="120" as="geometry">
            <mxRectangle x="1360.3" y="320" width="240" height="40" as="alternateBounds" />
          </mxGeometry>
        </mxCell>
        <mxCell id="WTOQ7RgYzSvXcb4ZEk5k-344" value="&lt;div&gt;放线、核面总图（PDF）&lt;/div&gt;&lt;div&gt;（技术审查章）&lt;br&gt;&lt;/div&gt;" style="shape=note;whiteSpace=wrap;html=1;backgroundOutline=1;darkOpacity=0.05;align=center;size=16;" parent="WTOQ7RgYzSvXcb4ZEk5k-343" vertex="1">
          <mxGeometry y="40" width="240" height="40" as="geometry" />
        </mxCell>
        <mxCell id="Fh-ANMCCMXkpX_T69aen-3" value="&lt;div&gt;单体方案文件（PDF）&lt;/div&gt;&lt;div&gt;（技术审查章）&lt;br&gt;&lt;/div&gt;" style="shape=note;whiteSpace=wrap;html=1;backgroundOutline=1;darkOpacity=0.05;align=center;size=16;" vertex="1" parent="WTOQ7RgYzSvXcb4ZEk5k-343">
          <mxGeometry y="80" width="240" height="40" as="geometry" />
        </mxCell>
        <mxCell id="WTOQ7RgYzSvXcb4ZEk5k-255" value="审查意见" style="swimlane;fontStyle=0;childLayout=stackLayout;horizontal=1;startSize=40;fillColor=#f8cecc;horizontalStack=0;resizeParent=1;resizeParentMax=0;resizeLast=0;collapsible=1;marginBottom=0;align=center;html=0;strokeColor=#b85450;" parent="WIyWlLk6GJQsqaUBKTNV-1" vertex="1">
          <mxGeometry x="840" width="240" height="200" as="geometry">
            <mxRectangle x="840" width="240" height="40" as="alternateBounds" />
          </mxGeometry>
        </mxCell>
        <mxCell id="WTOQ7RgYzSvXcb4ZEk5k-259" value="政策性审查意见（内审意见）" style="shape=card;whiteSpace=wrap;html=1;align=center;size=22;" parent="WTOQ7RgYzSvXcb4ZEk5k-255" vertex="1">
          <mxGeometry y="40" width="240" height="40" as="geometry" />
        </mxCell>
        <mxCell id="WTOQ7RgYzSvXcb4ZEk5k-258" value="技术审查意见" style="shape=card;whiteSpace=wrap;html=1;align=center;size=22;" parent="WTOQ7RgYzSvXcb4ZEk5k-255" vertex="1">
          <mxGeometry y="80" width="240" height="40" as="geometry" />
        </mxCell>
        <mxCell id="WTOQ7RgYzSvXcb4ZEk5k-256" value="图纸深度审查意见" style="shape=card;whiteSpace=wrap;html=1;align=center;size=22;" parent="WTOQ7RgYzSvXcb4ZEk5k-255" vertex="1">
          <mxGeometry y="120" width="240" height="40" as="geometry" />
        </mxCell>
        <mxCell id="WTOQ7RgYzSvXcb4ZEk5k-257" value="放线预审意见" style="shape=card;whiteSpace=wrap;html=1;align=center;size=22;" parent="WTOQ7RgYzSvXcb4ZEk5k-255" vertex="1">
          <mxGeometry y="160" width="240" height="40" as="geometry" />
        </mxCell>
        <mxCell id="Fh-ANMCCMXkpX_T69aen-4" value="加盖电子印章" style="swimlane;fontStyle=1;childLayout=stackLayout;horizontal=1;startSize=40;fillColor=#d80073;horizontalStack=0;resizeParent=1;resizeParentMax=0;resizeLast=0;collapsible=1;marginBottom=0;strokeColor=#A50040;fontColor=#ffffff;" vertex="1" parent="WIyWlLk6GJQsqaUBKTNV-1">
          <mxGeometry x="-750" y="360" width="120" height="120" as="geometry">
            <mxRectangle x="-690" y="200" width="120" height="40" as="alternateBounds" />
          </mxGeometry>
        </mxCell>
        <mxCell id="Fh-ANMCCMXkpX_T69aen-8" value="注入意见内容" style="rounded=0;whiteSpace=wrap;html=1;" vertex="1" parent="Fh-ANMCCMXkpX_T69aen-4">
          <mxGeometry y="40" width="120" height="40" as="geometry" />
        </mxCell>
        <mxCell id="Fh-ANMCCMXkpX_T69aen-10" value="注入水印及印章" style="rounded=0;whiteSpace=wrap;html=1;" vertex="1" parent="Fh-ANMCCMXkpX_T69aen-4">
          <mxGeometry y="80" width="120" height="40" as="geometry" />
        </mxCell>
        <mxCell id="Fh-ANMCCMXkpX_T69aen-12" value="加盖电子印章" style="swimlane;fontStyle=1;childLayout=stackLayout;horizontal=1;startSize=40;fillColor=#d80073;horizontalStack=0;resizeParent=1;resizeParentMax=0;resizeLast=0;collapsible=1;marginBottom=0;strokeColor=#A50040;fontColor=#ffffff;" vertex="1" parent="WIyWlLk6GJQsqaUBKTNV-1">
          <mxGeometry x="1160" y="160" width="120" height="200" as="geometry">
            <mxRectangle x="1160" y="200" width="120" height="40" as="alternateBounds" />
          </mxGeometry>
        </mxCell>
        <mxCell id="Fh-ANMCCMXkpX_T69aen-17" value="&lt;div&gt;选择需盖章文件&lt;/div&gt;" style="rounded=0;whiteSpace=wrap;html=1;" vertex="1" parent="Fh-ANMCCMXkpX_T69aen-12">
          <mxGeometry y="40" width="120" height="40" as="geometry" />
        </mxCell>
        <mxCell id="Fh-ANMCCMXkpX_T69aen-13" value="注入图纸批注" style="rounded=0;whiteSpace=wrap;html=1;" vertex="1" parent="Fh-ANMCCMXkpX_T69aen-12">
          <mxGeometry y="80" width="120" height="40" as="geometry" />
        </mxCell>
        <mxCell id="Fh-ANMCCMXkpX_T69aen-16" value="注入文本意见" style="rounded=0;whiteSpace=wrap;html=1;" vertex="1" parent="Fh-ANMCCMXkpX_T69aen-12">
          <mxGeometry y="120" width="120" height="40" as="geometry" />
        </mxCell>
        <mxCell id="Fh-ANMCCMXkpX_T69aen-14" value="注入电子印章" style="rounded=0;whiteSpace=wrap;html=1;" vertex="1" parent="Fh-ANMCCMXkpX_T69aen-12">
          <mxGeometry y="160" width="120" height="40" as="geometry" />
        </mxCell>
        <mxCell id="Fh-ANMCCMXkpX_T69aen-29" style="edgeStyle=orthogonalEdgeStyle;rounded=0;orthogonalLoop=1;jettySize=auto;html=1;exitX=1;exitY=0;exitDx=0;exitDy=0;strokeWidth=4;" edge="1" parent="WIyWlLk6GJQsqaUBKTNV-1" source="Fh-ANMCCMXkpX_T69aen-23" target="WTOQ7RgYzSvXcb4ZEk5k-96">
          <mxGeometry relative="1" as="geometry">
            <Array as="points">
              <mxPoint x="1300" y="680" />
              <mxPoint x="1300" y="680" />
            </Array>
          </mxGeometry>
        </mxCell>
        <mxCell id="Fh-ANMCCMXkpX_T69aen-19" value="加盖电子印章" style="swimlane;fontStyle=1;childLayout=stackLayout;horizontal=1;startSize=40;fillColor=#d80073;horizontalStack=0;resizeParent=1;resizeParentMax=0;resizeLast=0;collapsible=1;marginBottom=0;strokeColor=#A50040;fontColor=#ffffff;" vertex="1" parent="WIyWlLk6GJQsqaUBKTNV-1">
          <mxGeometry x="1160" y="520" width="120" height="200" as="geometry">
            <mxRectangle x="1160" y="520" width="120" height="40" as="alternateBounds" />
          </mxGeometry>
        </mxCell>
        <mxCell id="Fh-ANMCCMXkpX_T69aen-20" value="&lt;div&gt;选择需盖章文件&lt;/div&gt;" style="rounded=0;whiteSpace=wrap;html=1;" vertex="1" parent="Fh-ANMCCMXkpX_T69aen-19">
          <mxGeometry y="40" width="120" height="40" as="geometry" />
        </mxCell>
        <mxCell id="Fh-ANMCCMXkpX_T69aen-21" value="注入图纸批注" style="rounded=0;whiteSpace=wrap;html=1;" vertex="1" parent="Fh-ANMCCMXkpX_T69aen-19">
          <mxGeometry y="80" width="120" height="40" as="geometry" />
        </mxCell>
        <mxCell id="Fh-ANMCCMXkpX_T69aen-22" value="注入文本意见" style="rounded=0;whiteSpace=wrap;html=1;" vertex="1" parent="Fh-ANMCCMXkpX_T69aen-19">
          <mxGeometry y="120" width="120" height="40" as="geometry" />
        </mxCell>
        <mxCell id="Fh-ANMCCMXkpX_T69aen-23" value="注入电子印章" style="rounded=0;whiteSpace=wrap;html=1;" vertex="1" parent="Fh-ANMCCMXkpX_T69aen-19">
          <mxGeometry y="160" width="120" height="40" as="geometry" />
        </mxCell>
        <mxCell id="q9Dw7c0gLZ24XJoEXtp0-246" value="开始" style="shape=parallelogram;html=1;strokeWidth=2;perimeter=parallelogramPerimeter;whiteSpace=wrap;rounded=1;arcSize=12;size=0.23;align=center;" parent="WIyWlLk6GJQsqaUBKTNV-1" vertex="1">
          <mxGeometry x="740" y="2530" width="120" height="50" as="geometry" />
        </mxCell>
        <mxCell id="q9Dw7c0gLZ24XJoEXtp0-320" value="核面、核指标、日照" style="swimlane;align=center;html=0;fillColor=#fad7ac;strokeColor=#b46504;startSize=20;" parent="WIyWlLk6GJQsqaUBKTNV-1" vertex="1">
          <mxGeometry x="-220" y="720" width="140" height="420" as="geometry">
            <mxRectangle x="-400" y="800" width="140" height="20" as="alternateBounds" />
          </mxGeometry>
        </mxCell>
        <mxCell id="WTOQ7RgYzSvXcb4ZEk5k-331" value="" style="rounded=0;whiteSpace=wrap;html=1;fontSize=10;align=center;opacity=90;" parent="q9Dw7c0gLZ24XJoEXtp0-320" vertex="1">
          <mxGeometry y="21" width="140" height="399" as="geometry" />
        </mxCell>
        <mxCell id="q9Dw7c0gLZ24XJoEXtp0-321" value="开始" style="shape=parallelogram;html=1;strokeWidth=2;perimeter=parallelogramPerimeter;whiteSpace=wrap;rounded=1;arcSize=12;size=0.23;align=center;" parent="q9Dw7c0gLZ24XJoEXtp0-320" vertex="1">
          <mxGeometry x="20" y="39" width="100" height="41" as="geometry" />
        </mxCell>
        <mxCell id="q9Dw7c0gLZ24XJoEXtp0-324" style="edgeStyle=orthogonalEdgeStyle;rounded=0;orthogonalLoop=1;jettySize=auto;html=1;strokeWidth=4;entryX=0.5;entryY=0;entryDx=0;entryDy=0;exitX=0.5;exitY=1;exitDx=0;exitDy=0;" parent="q9Dw7c0gLZ24XJoEXtp0-320" source="q9Dw7c0gLZ24XJoEXtp0-321" target="q9Dw7c0gLZ24XJoEXtp0-322" edge="1">
          <mxGeometry relative="1" as="geometry">
            <mxPoint x="70.06000000000026" y="249.9960000000001" as="sourcePoint" />
            <mxPoint x="69.58000000000024" y="359.1500000000001" as="targetPoint" />
            <Array as="points" />
          </mxGeometry>
        </mxCell>
        <mxCell id="q9Dw7c0gLZ24XJoEXtp0-327" style="edgeStyle=orthogonalEdgeStyle;rounded=0;orthogonalLoop=1;jettySize=auto;html=1;strokeWidth=4;entryX=0.5;entryY=0;entryDx=0;entryDy=0;exitX=0.5;exitY=1;exitDx=0;exitDy=0;" parent="q9Dw7c0gLZ24XJoEXtp0-320" source="q9Dw7c0gLZ24XJoEXtp0-322" target="q9Dw7c0gLZ24XJoEXtp0-325" edge="1">
          <mxGeometry relative="1" as="geometry">
            <mxPoint x="80" y="99" as="sourcePoint" />
            <mxPoint x="80" y="130" as="targetPoint" />
            <Array as="points">
              <mxPoint x="70" y="190" />
              <mxPoint x="70" y="190" />
            </Array>
          </mxGeometry>
        </mxCell>
        <mxCell id="q9Dw7c0gLZ24XJoEXtp0-328" value="意见反馈" style="swimlane;fontStyle=0;childLayout=stackLayout;horizontal=1;startSize=20;fillColor=#ffcccc;horizontalStack=0;resizeParent=1;resizeParentMax=0;resizeLast=0;collapsible=1;marginBottom=0;strokeColor=#36393d;" parent="q9Dw7c0gLZ24XJoEXtp0-320" vertex="1">
          <mxGeometry x="20" y="280" width="100" height="40" as="geometry">
            <mxRectangle x="30" y="280" width="100" height="20" as="alternateBounds" />
          </mxGeometry>
        </mxCell>
        <mxCell id="q9Dw7c0gLZ24XJoEXtp0-329" value="处室经办人" style="text;strokeColor=none;fillColor=none;align=center;verticalAlign=middle;spacingLeft=4;spacingRight=4;overflow=hidden;rotatable=0;points=[[0,0.5],[1,0.5]];portConstraint=eastwest;" parent="q9Dw7c0gLZ24XJoEXtp0-328" vertex="1">
          <mxGeometry y="20" width="100" height="20" as="geometry" />
        </mxCell>
        <mxCell id="q9Dw7c0gLZ24XJoEXtp0-325" value="核面、核指标、日照" style="swimlane;fontStyle=0;childLayout=stackLayout;horizontal=1;startSize=20;fillColor=#ffcccc;horizontalStack=0;resizeParent=1;resizeParentMax=0;resizeLast=0;collapsible=1;marginBottom=0;strokeColor=#36393d;fontSize=10;verticalAlign=middle;" parent="q9Dw7c0gLZ24XJoEXtp0-320" vertex="1">
          <mxGeometry x="20" y="200" width="100" height="40" as="geometry">
            <mxRectangle x="30" y="200" width="100" height="20" as="alternateBounds" />
          </mxGeometry>
        </mxCell>
        <mxCell id="q9Dw7c0gLZ24XJoEXtp0-326" value="信息中心经办" style="text;strokeColor=none;fillColor=none;align=center;verticalAlign=middle;spacingLeft=4;spacingRight=4;overflow=hidden;rotatable=0;points=[[0,0.5],[1,0.5]];portConstraint=eastwest;" parent="q9Dw7c0gLZ24XJoEXtp0-325" vertex="1">
          <mxGeometry y="20" width="100" height="20" as="geometry" />
        </mxCell>
        <mxCell id="q9Dw7c0gLZ24XJoEXtp0-322" value="派单" style="swimlane;fontStyle=0;childLayout=stackLayout;horizontal=1;startSize=20;fillColor=#ffcccc;horizontalStack=0;resizeParent=1;resizeParentMax=0;resizeLast=0;collapsible=1;marginBottom=0;strokeColor=#36393d;verticalAlign=middle;" parent="q9Dw7c0gLZ24XJoEXtp0-320" vertex="1">
          <mxGeometry x="20" y="120" width="100" height="40" as="geometry">
            <mxRectangle x="30" y="120" width="100" height="20" as="alternateBounds" />
          </mxGeometry>
        </mxCell>
        <mxCell id="q9Dw7c0gLZ24XJoEXtp0-323" value="处室经办人" style="text;strokeColor=none;fillColor=none;align=center;verticalAlign=middle;spacingLeft=4;spacingRight=4;overflow=hidden;rotatable=0;points=[[0,0.5],[1,0.5]];portConstraint=eastwest;" parent="q9Dw7c0gLZ24XJoEXtp0-322" vertex="1">
          <mxGeometry y="20" width="100" height="20" as="geometry" />
        </mxCell>
        <mxCell id="q9Dw7c0gLZ24XJoEXtp0-330" style="edgeStyle=orthogonalEdgeStyle;rounded=0;orthogonalLoop=1;jettySize=auto;html=1;strokeWidth=4;entryX=0.5;entryY=0;entryDx=0;entryDy=0;" parent="q9Dw7c0gLZ24XJoEXtp0-320" source="q9Dw7c0gLZ24XJoEXtp0-325" target="q9Dw7c0gLZ24XJoEXtp0-328" edge="1">
          <mxGeometry relative="1" as="geometry">
            <mxPoint x="80" y="570" as="sourcePoint" />
            <mxPoint x="80" y="601" as="targetPoint" />
            <Array as="points" />
          </mxGeometry>
        </mxCell>
        <mxCell id="q9Dw7c0gLZ24XJoEXtp0-331" value="结束" style="strokeWidth=2;html=1;shape=mxgraph.flowchart.start_1;whiteSpace=wrap;align=center;" parent="q9Dw7c0gLZ24XJoEXtp0-320" vertex="1">
          <mxGeometry x="20" y="360" width="100" height="40" as="geometry" />
        </mxCell>
        <mxCell id="q9Dw7c0gLZ24XJoEXtp0-332" style="edgeStyle=orthogonalEdgeStyle;rounded=0;orthogonalLoop=1;jettySize=auto;html=1;strokeWidth=4;" parent="q9Dw7c0gLZ24XJoEXtp0-320" source="q9Dw7c0gLZ24XJoEXtp0-328" target="q9Dw7c0gLZ24XJoEXtp0-331" edge="1">
          <mxGeometry relative="1" as="geometry">
            <mxPoint x="230" y="560" as="sourcePoint" />
            <mxPoint x="80" y="500" as="targetPoint" />
            <Array as="points" />
          </mxGeometry>
        </mxCell>
        <mxCell id="WTOQ7RgYzSvXcb4ZEk5k-277" style="edgeStyle=orthogonalEdgeStyle;rounded=0;orthogonalLoop=1;jettySize=auto;html=1;exitX=1;exitY=0.5;exitDx=0;exitDy=0;strokeWidth=4;entryX=0;entryY=0.5;entryDx=0;entryDy=0;" parent="WIyWlLk6GJQsqaUBKTNV-1" source="WTOQ7RgYzSvXcb4ZEk5k-268" target="q9Dw7c0gLZ24XJoEXtp0-176" edge="1">
          <mxGeometry relative="1" as="geometry">
            <mxPoint x="1240.2199999999998" y="950" as="targetPoint" />
          </mxGeometry>
        </mxCell>
        <mxCell id="q9Dw7c0gLZ24XJoEXtp0-224" value="办理" style="swimlane;fontStyle=0;childLayout=stackLayout;horizontal=1;startSize=23;fillColor=#bac8d3;horizontalStack=0;resizeParent=1;resizeParentMax=0;resizeLast=0;collapsible=1;marginBottom=0;strokeColor=#23445d;" parent="WIyWlLk6GJQsqaUBKTNV-1" vertex="1">
          <mxGeometry x="2250" y="831" width="120" height="49" as="geometry">
            <mxRectangle x="180" y="170" width="50" height="26" as="alternateBounds" />
          </mxGeometry>
        </mxCell>
        <mxCell id="q9Dw7c0gLZ24XJoEXtp0-225" value="虚拟角色" style="text;strokeColor=none;fillColor=none;align=center;verticalAlign=top;spacingLeft=4;spacingRight=4;overflow=hidden;rotatable=0;points=[[0,0.5],[1,0.5]];portConstraint=eastwest;" parent="q9Dw7c0gLZ24XJoEXtp0-224" vertex="1">
          <mxGeometry y="23" width="120" height="26" as="geometry" />
        </mxCell>
        <mxCell id="WTOQ7RgYzSvXcb4ZEk5k-84" value="图纸（PDF）_盖章" style="swimlane;fontStyle=0;childLayout=stackLayout;horizontal=1;startSize=40;fillColor=#f8cecc;horizontalStack=0;resizeParent=1;resizeParentMax=0;resizeLast=0;collapsible=1;marginBottom=0;align=center;html=0;strokeColor=#b85450;" parent="WIyWlLk6GJQsqaUBKTNV-1" vertex="1">
          <mxGeometry x="1360.4099999999999" y="520" width="239.89" height="80" as="geometry">
            <mxRectangle x="1359.96" y="680" width="240" height="40" as="alternateBounds" />
          </mxGeometry>
        </mxCell>
        <mxCell id="WTOQ7RgYzSvXcb4ZEk5k-88" value="&lt;div&gt;规划总平面图(PDF)_盖章&lt;/div&gt;&lt;div&gt;（资规局2号章）&lt;br&gt;&lt;/div&gt;" style="shape=note;whiteSpace=wrap;html=1;backgroundOutline=1;darkOpacity=0.05;align=center;size=16;" parent="WTOQ7RgYzSvXcb4ZEk5k-84" vertex="1">
          <mxGeometry y="40" width="239.89" height="40" as="geometry" />
        </mxCell>
        <mxCell id="WTOQ7RgYzSvXcb4ZEk5k-96" value="文本（PDF）_盖章" style="swimlane;fontStyle=0;childLayout=stackLayout;horizontal=1;startSize=40;fillColor=#f8cecc;horizontalStack=0;resizeParent=1;resizeParentMax=0;resizeLast=0;collapsible=1;marginBottom=0;align=center;html=0;strokeColor=#b85450;" parent="WIyWlLk6GJQsqaUBKTNV-1" vertex="1">
          <mxGeometry x="1359.6199999999997" y="640" width="240" height="80" as="geometry">
            <mxRectangle x="1360.0799999999997" y="520" width="240" height="40" as="alternateBounds" />
          </mxGeometry>
        </mxCell>
        <mxCell id="WTOQ7RgYzSvXcb4ZEk5k-101" value="&lt;div&gt;方案设计文本(PDF)_盖章&lt;/div&gt;&lt;div&gt;（资规局2号章）&lt;br&gt;&lt;/div&gt;" style="shape=note;whiteSpace=wrap;html=1;backgroundOutline=1;darkOpacity=0.05;align=center;size=16;" parent="WTOQ7RgYzSvXcb4ZEk5k-96" vertex="1">
          <mxGeometry y="40" width="240" height="40" as="geometry" />
        </mxCell>
        <mxCell id="q9Dw7c0gLZ24XJoEXtp0-176" value="规划方案审查通知单（PDF）" style="swimlane;fontStyle=0;childLayout=stackLayout;horizontal=1;startSize=40;fillColor=#f8cecc;horizontalStack=0;resizeParent=1;resizeParentMax=0;resizeLast=0;collapsible=1;marginBottom=0;align=center;html=0;strokeColor=#b85450;" parent="WIyWlLk6GJQsqaUBKTNV-1" vertex="1">
          <mxGeometry x="1360.4099999999999" y="760" width="240" height="80" as="geometry">
            <mxRectangle x="1360.01" y="680" width="240" height="40" as="alternateBounds" />
          </mxGeometry>
        </mxCell>
        <mxCell id="q9Dw7c0gLZ24XJoEXtp0-133" value="&lt;div&gt;规划方案审查通知单(PDF)_盖章&lt;/div&gt;&lt;div&gt;（资规局2号章）&lt;br&gt;&lt;/div&gt;" style="shape=note;whiteSpace=wrap;html=1;backgroundOutline=1;darkOpacity=0.05;align=center;size=16;" parent="q9Dw7c0gLZ24XJoEXtp0-176" vertex="1">
          <mxGeometry y="40" width="240" height="40" as="geometry" />
        </mxCell>
        <mxCell id="WTOQ7RgYzSvXcb4ZEk5k-268" value="审定意见" style="swimlane;fontStyle=0;childLayout=stackLayout;horizontal=1;startSize=40;fillColor=#f8cecc;horizontalStack=0;resizeParent=1;resizeParentMax=0;resizeLast=0;collapsible=1;marginBottom=0;align=center;html=0;strokeColor=#b85450;" parent="WIyWlLk6GJQsqaUBKTNV-1" vertex="1">
          <mxGeometry x="840.22" y="760" width="240" height="80" as="geometry">
            <mxRectangle x="840" y="680" width="240" height="40" as="alternateBounds" />
          </mxGeometry>
        </mxCell>
        <mxCell id="WTOQ7RgYzSvXcb4ZEk5k-269" value="规划方案审查通知单信息" style="shape=card;whiteSpace=wrap;html=1;align=center;size=22;" parent="WTOQ7RgYzSvXcb4ZEk5k-268" vertex="1">
          <mxGeometry y="40" width="240" height="40" as="geometry" />
        </mxCell>
        <mxCell id="Fh-ANMCCMXkpX_T69aen-30" value="加盖电子印章" style="swimlane;fontStyle=1;childLayout=stackLayout;horizontal=1;startSize=40;fillColor=#d80073;horizontalStack=0;resizeParent=1;resizeParentMax=0;resizeLast=0;collapsible=1;marginBottom=0;strokeColor=#A50040;fontColor=#ffffff;" vertex="1" parent="WIyWlLk6GJQsqaUBKTNV-1">
          <mxGeometry x="1160" y="840" width="120" height="200" as="geometry">
            <mxRectangle x="1160" y="520" width="120" height="40" as="alternateBounds" />
          </mxGeometry>
        </mxCell>
        <mxCell id="Fh-ANMCCMXkpX_T69aen-31" value="&lt;div&gt;输出表打印&lt;/div&gt;&lt;div&gt;PDF格式文件&lt;/div&gt;" style="rounded=0;whiteSpace=wrap;html=1;" vertex="1" parent="Fh-ANMCCMXkpX_T69aen-30">
          <mxGeometry y="40" width="120" height="40" as="geometry" />
        </mxCell>
        <mxCell id="Fh-ANMCCMXkpX_T69aen-32" value="注入电子印章" style="rounded=0;whiteSpace=wrap;html=1;" vertex="1" parent="Fh-ANMCCMXkpX_T69aen-30">
          <mxGeometry y="80" width="120" height="40" as="geometry" />
        </mxCell>
        <mxCell id="Fh-ANMCCMXkpX_T69aen-33" value="存入对应文件夹" style="rounded=0;whiteSpace=wrap;html=1;" vertex="1" parent="Fh-ANMCCMXkpX_T69aen-30">
          <mxGeometry y="120" width="120" height="40" as="geometry" />
        </mxCell>
        <mxCell id="Fh-ANMCCMXkpX_T69aen-34" value="注入印章" style="rounded=0;whiteSpace=wrap;html=1;" vertex="1" parent="Fh-ANMCCMXkpX_T69aen-30">
          <mxGeometry y="160" width="120" height="40" as="geometry" />
        </mxCell>
        <mxCell id="q9Dw7c0gLZ24XJoEXtp0-412" value="工规证阶段核心成果材料" style="swimlane;fontStyle=0;childLayout=stackLayout;horizontal=1;startSize=26;fillColor=#bac8d3;horizontalStack=0;resizeParent=1;resizeParentMax=0;resizeLast=0;collapsible=1;marginBottom=0;align=center;html=0;strokeColor=#23445d;" parent="WIyWlLk6GJQsqaUBKTNV-1" vertex="1">
          <mxGeometry x="1040" y="2880" width="240" height="94" as="geometry">
            <mxRectangle x="440" y="980" width="100" height="26" as="alternateBounds" />
          </mxGeometry>
        </mxCell>
        <mxCell id="q9Dw7c0gLZ24XJoEXtp0-413" value="建设工程规划审批单" style="shape=note;whiteSpace=wrap;html=1;backgroundOutline=1;darkOpacity=0.05;align=center;size=16;" parent="q9Dw7c0gLZ24XJoEXtp0-412" vertex="1">
          <mxGeometry y="26" width="240" height="34" as="geometry" />
        </mxCell>
        <mxCell id="q9Dw7c0gLZ24XJoEXtp0-414" value="建设工程规划许可证" style="shape=note;whiteSpace=wrap;html=1;backgroundOutline=1;darkOpacity=0.05;align=center;size=16;" parent="q9Dw7c0gLZ24XJoEXtp0-412" vertex="1">
          <mxGeometry y="60" width="240" height="34" as="geometry" />
        </mxCell>
        <mxCell id="q9Dw7c0gLZ24XJoEXtp0-409" value="工规证阶段核心成果材料" style="swimlane;fontStyle=0;childLayout=stackLayout;horizontal=1;startSize=26;fillColor=#f8cecc;horizontalStack=0;resizeParent=1;resizeParentMax=0;resizeLast=0;collapsible=1;marginBottom=0;align=center;html=0;strokeColor=#b85450;" parent="WIyWlLk6GJQsqaUBKTNV-1" vertex="1">
          <mxGeometry x="440" y="3080" width="240" height="94" as="geometry">
            <mxRectangle x="440" y="980" width="100" height="26" as="alternateBounds" />
          </mxGeometry>
        </mxCell>
        <mxCell id="q9Dw7c0gLZ24XJoEXtp0-410" value="建设工程规划审批单" style="shape=note;whiteSpace=wrap;html=1;backgroundOutline=1;darkOpacity=0.05;align=center;size=16;" parent="q9Dw7c0gLZ24XJoEXtp0-409" vertex="1">
          <mxGeometry y="26" width="240" height="34" as="geometry" />
        </mxCell>
        <mxCell id="q9Dw7c0gLZ24XJoEXtp0-411" value="建设工程规划许可证" style="shape=note;whiteSpace=wrap;html=1;backgroundOutline=1;darkOpacity=0.05;align=center;size=16;" parent="q9Dw7c0gLZ24XJoEXtp0-409" vertex="1">
          <mxGeometry y="60" width="240" height="34" as="geometry" />
        </mxCell>
        <mxCell id="q9Dw7c0gLZ24XJoEXtp0-212" value="案卷申报" style="swimlane;fontStyle=0;childLayout=stackLayout;horizontal=1;startSize=23;fillColor=#bac8d3;horizontalStack=0;resizeParent=1;resizeParentMax=0;resizeLast=0;collapsible=1;marginBottom=0;strokeColor=#23445d;" parent="WIyWlLk6GJQsqaUBKTNV-1" vertex="1">
          <mxGeometry x="2260" y="120" width="120" height="49" as="geometry">
            <mxRectangle x="180" y="170" width="50" height="26" as="alternateBounds" />
          </mxGeometry>
        </mxCell>
        <mxCell id="q9Dw7c0gLZ24XJoEXtp0-213" value="报建员" style="text;strokeColor=none;fillColor=none;align=center;verticalAlign=top;spacingLeft=4;spacingRight=4;overflow=hidden;rotatable=0;points=[[0,0.5],[1,0.5]];portConstraint=eastwest;" parent="q9Dw7c0gLZ24XJoEXtp0-212" vertex="1">
          <mxGeometry y="23" width="120" height="26" as="geometry" />
        </mxCell>
        <mxCell id="q9Dw7c0gLZ24XJoEXtp0-227" value="办结" style="swimlane;fontStyle=0;childLayout=stackLayout;horizontal=1;startSize=23;fillColor=#bac8d3;horizontalStack=0;resizeParent=1;resizeParentMax=0;resizeLast=0;collapsible=1;marginBottom=0;strokeColor=#23445d;" parent="WIyWlLk6GJQsqaUBKTNV-1" vertex="1">
          <mxGeometry x="2260" y="985.5" width="120" height="49" as="geometry">
            <mxRectangle x="180" y="170" width="50" height="26" as="alternateBounds" />
          </mxGeometry>
        </mxCell>
        <mxCell id="q9Dw7c0gLZ24XJoEXtp0-228" value="报建员" style="text;strokeColor=none;fillColor=none;align=center;verticalAlign=top;spacingLeft=4;spacingRight=4;overflow=hidden;rotatable=0;points=[[0,0.5],[1,0.5]];portConstraint=eastwest;" parent="q9Dw7c0gLZ24XJoEXtp0-227" vertex="1">
          <mxGeometry y="23" width="120" height="26" as="geometry" />
        </mxCell>
        <mxCell id="WTOQ7RgYzSvXcb4ZEk5k-6" value="Container" style="swimlane;startSize=39;allowArrows=0;" parent="WIyWlLk6GJQsqaUBKTNV-1" vertex="1">
          <mxGeometry x="-50" y="1780" width="680" height="1330" as="geometry">
            <mxRectangle x="-640" y="2120" width="90" height="39" as="alternateBounds" />
          </mxGeometry>
        </mxCell>
        <mxCell id="q9Dw7c0gLZ24XJoEXtp0-350" value="案卷接件" style="swimlane;fontStyle=0;childLayout=stackLayout;horizontal=1;startSize=23;fillColor=#ffcccc;horizontalStack=0;resizeParent=1;resizeParentMax=0;resizeLast=0;collapsible=1;marginBottom=0;strokeColor=#36393d;" parent="WTOQ7RgYzSvXcb4ZEk5k-6" vertex="1">
          <mxGeometry x="200" y="240.5" width="120" height="49" as="geometry">
            <mxRectangle x="180" y="170" width="50" height="26" as="alternateBounds" />
          </mxGeometry>
        </mxCell>
        <mxCell id="q9Dw7c0gLZ24XJoEXtp0-351" value="窗口人员" style="text;strokeColor=none;fillColor=none;align=center;verticalAlign=top;spacingLeft=4;spacingRight=4;overflow=hidden;rotatable=0;points=[[0,0.5],[1,0.5]];portConstraint=eastwest;" parent="q9Dw7c0gLZ24XJoEXtp0-350" vertex="1">
          <mxGeometry y="23" width="120" height="26" as="geometry" />
        </mxCell>
        <mxCell id="q9Dw7c0gLZ24XJoEXtp0-354" value="处长分卷" style="swimlane;fontStyle=0;childLayout=stackLayout;horizontal=1;startSize=23;fillColor=#ffcccc;horizontalStack=0;resizeParent=1;resizeParentMax=0;resizeLast=0;collapsible=1;marginBottom=0;strokeColor=#36393d;" parent="WTOQ7RgYzSvXcb4ZEk5k-6" vertex="1">
          <mxGeometry x="200" y="400.5" width="120" height="49" as="geometry">
            <mxRectangle x="180" y="170" width="50" height="26" as="alternateBounds" />
          </mxGeometry>
        </mxCell>
        <mxCell id="q9Dw7c0gLZ24XJoEXtp0-355" value="处长" style="text;strokeColor=none;fillColor=none;align=center;verticalAlign=top;spacingLeft=4;spacingRight=4;overflow=hidden;rotatable=0;points=[[0,0.5],[1,0.5]];portConstraint=eastwest;" parent="q9Dw7c0gLZ24XJoEXtp0-354" vertex="1">
          <mxGeometry y="23" width="120" height="26" as="geometry" />
        </mxCell>
        <mxCell id="q9Dw7c0gLZ24XJoEXtp0-392" value="经办人办理" style="swimlane;fontStyle=0;childLayout=stackLayout;horizontal=1;startSize=23;fillColor=#ffcccc;horizontalStack=0;resizeParent=1;resizeParentMax=0;resizeLast=0;collapsible=1;marginBottom=0;strokeColor=#36393d;" parent="WTOQ7RgYzSvXcb4ZEk5k-6" vertex="1">
          <mxGeometry x="200" y="560.5" width="120" height="49" as="geometry">
            <mxRectangle x="180" y="170" width="50" height="26" as="alternateBounds" />
          </mxGeometry>
        </mxCell>
        <mxCell id="q9Dw7c0gLZ24XJoEXtp0-393" value="经办人" style="text;strokeColor=none;fillColor=none;align=center;verticalAlign=top;spacingLeft=4;spacingRight=4;overflow=hidden;rotatable=0;points=[[0,0.5],[1,0.5]];portConstraint=eastwest;" parent="q9Dw7c0gLZ24XJoEXtp0-392" vertex="1">
          <mxGeometry y="23" width="120" height="26" as="geometry" />
        </mxCell>
        <mxCell id="q9Dw7c0gLZ24XJoEXtp0-395" value="经办人办理" style="swimlane;fontStyle=0;childLayout=stackLayout;horizontal=1;startSize=23;fillColor=#ffcccc;horizontalStack=0;resizeParent=1;resizeParentMax=0;resizeLast=0;collapsible=1;marginBottom=0;strokeColor=#36393d;" parent="WTOQ7RgYzSvXcb4ZEk5k-6" vertex="1">
          <mxGeometry x="200" y="720.5" width="120" height="49" as="geometry">
            <mxRectangle x="180" y="170" width="50" height="26" as="alternateBounds" />
          </mxGeometry>
        </mxCell>
        <mxCell id="q9Dw7c0gLZ24XJoEXtp0-396" value="经办人" style="text;strokeColor=none;fillColor=none;align=center;verticalAlign=top;spacingLeft=4;spacingRight=4;overflow=hidden;rotatable=0;points=[[0,0.5],[1,0.5]];portConstraint=eastwest;" parent="q9Dw7c0gLZ24XJoEXtp0-395" vertex="1">
          <mxGeometry y="23" width="120" height="26" as="geometry" />
        </mxCell>
        <mxCell id="q9Dw7c0gLZ24XJoEXtp0-401" value="处长审核" style="swimlane;fontStyle=0;childLayout=stackLayout;horizontal=1;startSize=23;fillColor=#ffcccc;horizontalStack=0;resizeParent=1;resizeParentMax=0;resizeLast=0;collapsible=1;marginBottom=0;strokeColor=#36393d;" parent="WTOQ7RgYzSvXcb4ZEk5k-6" vertex="1">
          <mxGeometry x="200" y="880.5" width="120" height="49" as="geometry">
            <mxRectangle x="180" y="170" width="50" height="26" as="alternateBounds" />
          </mxGeometry>
        </mxCell>
        <mxCell id="q9Dw7c0gLZ24XJoEXtp0-402" value="处长" style="text;strokeColor=none;fillColor=none;align=center;verticalAlign=top;spacingLeft=4;spacingRight=4;overflow=hidden;rotatable=0;points=[[0,0.5],[1,0.5]];portConstraint=eastwest;" parent="q9Dw7c0gLZ24XJoEXtp0-401" vertex="1">
          <mxGeometry y="23" width="120" height="26" as="geometry" />
        </mxCell>
        <mxCell id="q9Dw7c0gLZ24XJoEXtp0-405" value="经办人整理" style="swimlane;fontStyle=0;childLayout=stackLayout;horizontal=1;startSize=23;fillColor=#ffcccc;horizontalStack=0;resizeParent=1;resizeParentMax=0;resizeLast=0;collapsible=1;marginBottom=0;strokeColor=#36393d;" parent="WTOQ7RgYzSvXcb4ZEk5k-6" vertex="1">
          <mxGeometry x="200" y="1040.5" width="120" height="49" as="geometry">
            <mxRectangle x="180" y="170" width="50" height="26" as="alternateBounds" />
          </mxGeometry>
        </mxCell>
        <mxCell id="q9Dw7c0gLZ24XJoEXtp0-406" value="经办人" style="text;strokeColor=none;fillColor=none;align=center;verticalAlign=top;spacingLeft=4;spacingRight=4;overflow=hidden;rotatable=0;points=[[0,0.5],[1,0.5]];portConstraint=eastwest;" parent="q9Dw7c0gLZ24XJoEXtp0-405" vertex="1">
          <mxGeometry y="23" width="120" height="26" as="geometry" />
        </mxCell>
        <mxCell id="q9Dw7c0gLZ24XJoEXtp0-398" value="中介机构技术审查" style="swimlane;fontStyle=0;childLayout=stackLayout;horizontal=1;startSize=23;fillColor=#ffcccc;horizontalStack=0;resizeParent=1;resizeParentMax=0;resizeLast=0;collapsible=1;marginBottom=0;strokeColor=#36393d;" parent="WTOQ7RgYzSvXcb4ZEk5k-6" vertex="1">
          <mxGeometry x="40" y="800.5" width="120" height="49" as="geometry">
            <mxRectangle x="180" y="170" width="50" height="26" as="alternateBounds" />
          </mxGeometry>
        </mxCell>
        <mxCell id="q9Dw7c0gLZ24XJoEXtp0-399" value="长勘院或信息中心" style="text;strokeColor=none;fillColor=none;align=center;verticalAlign=top;spacingLeft=4;spacingRight=4;overflow=hidden;rotatable=0;points=[[0,0.5],[1,0.5]];portConstraint=eastwest;" parent="q9Dw7c0gLZ24XJoEXtp0-398" vertex="1">
          <mxGeometry y="23" width="120" height="26" as="geometry" />
        </mxCell>
        <mxCell id="q9Dw7c0gLZ24XJoEXtp0-415" value="出窗发证" style="swimlane;fontStyle=0;childLayout=stackLayout;horizontal=1;startSize=23;fillColor=#ffcccc;horizontalStack=0;resizeParent=1;resizeParentMax=0;resizeLast=0;collapsible=1;marginBottom=0;strokeColor=#36393d;" parent="WTOQ7RgYzSvXcb4ZEk5k-6" vertex="1">
          <mxGeometry x="200" y="1200.5" width="120" height="49" as="geometry">
            <mxRectangle x="180" y="170" width="50" height="26" as="alternateBounds" />
          </mxGeometry>
        </mxCell>
        <mxCell id="q9Dw7c0gLZ24XJoEXtp0-416" value="窗口人员" style="text;strokeColor=none;fillColor=none;align=center;verticalAlign=top;spacingLeft=4;spacingRight=4;overflow=hidden;rotatable=0;points=[[0,0.5],[1,0.5]];portConstraint=eastwest;" parent="q9Dw7c0gLZ24XJoEXtp0-415" vertex="1">
          <mxGeometry y="23" width="120" height="26" as="geometry" />
        </mxCell>
        <mxCell id="q9Dw7c0gLZ24XJoEXtp0-353" value="开始" style="shape=parallelogram;html=1;strokeWidth=2;perimeter=parallelogramPerimeter;whiteSpace=wrap;rounded=1;arcSize=12;size=0.23;align=center;" parent="WTOQ7RgYzSvXcb4ZEk5k-6" vertex="1">
          <mxGeometry x="200" y="80.5" width="120" height="50" as="geometry" />
        </mxCell>
        <mxCell id="q9Dw7c0gLZ24XJoEXtp0-352" style="edgeStyle=orthogonalEdgeStyle;rounded=0;orthogonalLoop=1;jettySize=auto;html=1;exitX=0.5;exitY=1;exitDx=0;exitDy=0;entryX=0.5;entryY=0;entryDx=0;entryDy=0;strokeWidth=4;" parent="WTOQ7RgYzSvXcb4ZEk5k-6" source="q9Dw7c0gLZ24XJoEXtp0-353" target="q9Dw7c0gLZ24XJoEXtp0-350" edge="1">
          <mxGeometry relative="1" as="geometry" />
        </mxCell>
        <mxCell id="q9Dw7c0gLZ24XJoEXtp0-356" value="" style="edgeStyle=orthogonalEdgeStyle;rounded=0;orthogonalLoop=1;jettySize=auto;html=1;strokeColor=#000000;strokeWidth=4;fillColor=none;" parent="WTOQ7RgYzSvXcb4ZEk5k-6" source="q9Dw7c0gLZ24XJoEXtp0-350" target="q9Dw7c0gLZ24XJoEXtp0-354" edge="1">
          <mxGeometry relative="1" as="geometry" />
        </mxCell>
        <mxCell id="q9Dw7c0gLZ24XJoEXtp0-394" value="" style="edgeStyle=orthogonalEdgeStyle;rounded=0;orthogonalLoop=1;jettySize=auto;html=1;strokeColor=#000000;strokeWidth=4;fillColor=none;" parent="WTOQ7RgYzSvXcb4ZEk5k-6" source="q9Dw7c0gLZ24XJoEXtp0-354" target="q9Dw7c0gLZ24XJoEXtp0-392" edge="1">
          <mxGeometry relative="1" as="geometry" />
        </mxCell>
        <mxCell id="q9Dw7c0gLZ24XJoEXtp0-397" value="" style="edgeStyle=orthogonalEdgeStyle;rounded=0;orthogonalLoop=1;jettySize=auto;html=1;strokeColor=#000000;strokeWidth=4;fillColor=none;" parent="WTOQ7RgYzSvXcb4ZEk5k-6" source="q9Dw7c0gLZ24XJoEXtp0-392" target="q9Dw7c0gLZ24XJoEXtp0-395" edge="1">
          <mxGeometry relative="1" as="geometry" />
        </mxCell>
        <mxCell id="q9Dw7c0gLZ24XJoEXtp0-404" style="edgeStyle=orthogonalEdgeStyle;rounded=0;orthogonalLoop=1;jettySize=auto;html=1;exitX=0.5;exitY=1;exitDx=0;exitDy=0;entryX=0.5;entryY=0;entryDx=0;entryDy=0;strokeColor=#000000;strokeWidth=4;fillColor=none;" parent="WTOQ7RgYzSvXcb4ZEk5k-6" source="q9Dw7c0gLZ24XJoEXtp0-395" target="q9Dw7c0gLZ24XJoEXtp0-401" edge="1">
          <mxGeometry relative="1" as="geometry" />
        </mxCell>
        <mxCell id="q9Dw7c0gLZ24XJoEXtp0-407" value="" style="edgeStyle=orthogonalEdgeStyle;rounded=0;orthogonalLoop=1;jettySize=auto;html=1;strokeColor=#000000;strokeWidth=4;fillColor=none;" parent="WTOQ7RgYzSvXcb4ZEk5k-6" source="q9Dw7c0gLZ24XJoEXtp0-401" target="q9Dw7c0gLZ24XJoEXtp0-405" edge="1">
          <mxGeometry relative="1" as="geometry" />
        </mxCell>
        <mxCell id="q9Dw7c0gLZ24XJoEXtp0-400" value="" style="edgeStyle=orthogonalEdgeStyle;rounded=0;orthogonalLoop=1;jettySize=auto;html=1;strokeColor=#000000;strokeWidth=4;fillColor=none;" parent="WTOQ7RgYzSvXcb4ZEk5k-6" source="q9Dw7c0gLZ24XJoEXtp0-392" target="q9Dw7c0gLZ24XJoEXtp0-398" edge="1">
          <mxGeometry relative="1" as="geometry">
            <Array as="points">
              <mxPoint x="260" y="680.5" />
              <mxPoint x="100" y="680.5" />
            </Array>
          </mxGeometry>
        </mxCell>
        <mxCell id="q9Dw7c0gLZ24XJoEXtp0-408" style="edgeStyle=orthogonalEdgeStyle;rounded=0;orthogonalLoop=1;jettySize=auto;html=1;exitX=0.5;exitY=1;exitDx=0;exitDy=0;entryX=0.5;entryY=0;entryDx=0;entryDy=0;strokeColor=#000000;strokeWidth=4;fillColor=none;" parent="WTOQ7RgYzSvXcb4ZEk5k-6" source="q9Dw7c0gLZ24XJoEXtp0-398" target="q9Dw7c0gLZ24XJoEXtp0-405" edge="1">
          <mxGeometry relative="1" as="geometry">
            <Array as="points">
              <mxPoint x="100" y="970.5" />
              <mxPoint x="260" y="970.5" />
            </Array>
          </mxGeometry>
        </mxCell>
        <mxCell id="q9Dw7c0gLZ24XJoEXtp0-417" value="" style="edgeStyle=orthogonalEdgeStyle;rounded=0;orthogonalLoop=1;jettySize=auto;html=1;strokeColor=#000000;strokeWidth=4;fillColor=none;" parent="WTOQ7RgYzSvXcb4ZEk5k-6" source="q9Dw7c0gLZ24XJoEXtp0-405" target="q9Dw7c0gLZ24XJoEXtp0-415" edge="1">
          <mxGeometry relative="1" as="geometry" />
        </mxCell>
        <mxCell id="WTOQ7RgYzSvXcb4ZEk5k-63" value="自动分卷" style="swimlane;startSize=39;fillColor=#d80073;strokeColor=#A50040;fontColor=#ffffff;" parent="WIyWlLk6GJQsqaUBKTNV-1" vertex="1">
          <mxGeometry x="-520" y="200" width="160" height="170" as="geometry">
            <mxRectangle x="-520" y="200" width="160" height="40" as="alternateBounds" />
          </mxGeometry>
        </mxCell>
        <mxCell id="WTOQ7RgYzSvXcb4ZEk5k-276" style="edgeStyle=orthogonalEdgeStyle;rounded=0;orthogonalLoop=1;jettySize=auto;html=1;exitX=1;exitY=0.5;exitDx=0;exitDy=0;entryX=0;entryY=0.5;entryDx=0;entryDy=0;strokeWidth=4;" parent="WIyWlLk6GJQsqaUBKTNV-1" source="q9Dw7c0gLZ24XJoEXtp0-61" target="WTOQ7RgYzSvXcb4ZEk5k-268" edge="1">
          <mxGeometry relative="1" as="geometry">
            <Array as="points">
              <mxPoint x="480" y="640" />
              <mxPoint x="480" y="800" />
            </Array>
          </mxGeometry>
        </mxCell>
        <mxCell id="WTOQ7RgYzSvXcb4ZEk5k-284" style="edgeStyle=orthogonalEdgeStyle;rounded=0;orthogonalLoop=1;jettySize=auto;html=1;exitX=1;exitY=0.5;exitDx=0;exitDy=0;entryX=0;entryY=0.75;entryDx=0;entryDy=0;strokeWidth=4;" parent="WIyWlLk6GJQsqaUBKTNV-1" source="WTOQ7RgYzSvXcb4ZEk5k-75" target="WTOQ7RgYzSvXcb4ZEk5k-181" edge="1">
          <mxGeometry relative="1" as="geometry">
            <Array as="points">
              <mxPoint x="480" y="-60" />
              <mxPoint x="480" y="-110" />
            </Array>
          </mxGeometry>
        </mxCell>
        <mxCell id="WTOQ7RgYzSvXcb4ZEk5k-285" style="edgeStyle=orthogonalEdgeStyle;rounded=0;orthogonalLoop=1;jettySize=auto;html=1;exitX=1;exitY=0.5;exitDx=0;exitDy=0;entryX=0;entryY=0.5;entryDx=0;entryDy=0;strokeWidth=4;" parent="WIyWlLk6GJQsqaUBKTNV-1" source="q9Dw7c0gLZ24XJoEXtp0-53" target="WTOQ7RgYzSvXcb4ZEk5k-255" edge="1">
          <mxGeometry relative="1" as="geometry">
            <Array as="points">
              <mxPoint x="500" y="200" />
              <mxPoint x="500" y="100" />
            </Array>
          </mxGeometry>
        </mxCell>
        <mxCell id="WTOQ7RgYzSvXcb4ZEk5k-286" style="edgeStyle=orthogonalEdgeStyle;rounded=0;orthogonalLoop=1;jettySize=auto;html=1;exitX=1;exitY=0.5;exitDx=0;exitDy=0;strokeWidth=4;" parent="WIyWlLk6GJQsqaUBKTNV-1" source="q9Dw7c0gLZ24XJoEXtp0-61" target="Fh-ANMCCMXkpX_T69aen-19" edge="1">
          <mxGeometry relative="1" as="geometry">
            <Array as="points">
              <mxPoint x="480" y="640" />
              <mxPoint x="480" y="680" />
            </Array>
            <mxPoint x="1020" y="630" as="targetPoint" />
          </mxGeometry>
        </mxCell>
        <mxCell id="WTOQ7RgYzSvXcb4ZEk5k-287" style="edgeStyle=orthogonalEdgeStyle;rounded=0;orthogonalLoop=1;jettySize=auto;html=1;exitX=1;exitY=0.5;exitDx=0;exitDy=0;strokeWidth=4;" parent="WIyWlLk6GJQsqaUBKTNV-1" source="q9Dw7c0gLZ24XJoEXtp0-61" target="Fh-ANMCCMXkpX_T69aen-19" edge="1">
          <mxGeometry relative="1" as="geometry">
            <Array as="points">
              <mxPoint x="480" y="640" />
              <mxPoint x="480" y="560" />
            </Array>
            <mxPoint x="1010" y="530" as="targetPoint" />
          </mxGeometry>
        </mxCell>
        <mxCell id="WTOQ7RgYzSvXcb4ZEk5k-288" style="edgeStyle=orthogonalEdgeStyle;rounded=0;orthogonalLoop=1;jettySize=auto;html=1;exitX=1;exitY=0.5;exitDx=0;exitDy=0;entryX=0;entryY=0.5;entryDx=0;entryDy=0;strokeWidth=4;" parent="WIyWlLk6GJQsqaUBKTNV-1" source="q9Dw7c0gLZ24XJoEXtp0-10" target="WTOQ7RgYzSvXcb4ZEk5k-171" edge="1">
          <mxGeometry relative="1" as="geometry">
            <Array as="points">
              <mxPoint x="480" y="-440" />
              <mxPoint x="480" y="-280" />
            </Array>
          </mxGeometry>
        </mxCell>
        <mxCell id="WTOQ7RgYzSvXcb4ZEk5k-291" style="edgeStyle=orthogonalEdgeStyle;rounded=0;orthogonalLoop=1;jettySize=auto;html=1;exitX=1;exitY=0.5;exitDx=0;exitDy=0;strokeWidth=4;" parent="WIyWlLk6GJQsqaUBKTNV-1" source="q9Dw7c0gLZ24XJoEXtp0-170" edge="1">
          <mxGeometry relative="1" as="geometry">
            <Array as="points">
              <mxPoint x="840" y="-540" />
            </Array>
            <mxPoint x="850" y="-540" as="targetPoint" />
          </mxGeometry>
        </mxCell>
        <mxCell id="WTOQ7RgYzSvXcb4ZEk5k-292" value="批后公布" style="swimlane;align=center;html=0;fillColor=#fad7ac;strokeColor=#b46504;startSize=20;" parent="WIyWlLk6GJQsqaUBKTNV-1" vertex="1">
          <mxGeometry x="-580" y="920" width="140" height="420" as="geometry">
            <mxRectangle x="-580" y="1040" width="140" height="20" as="alternateBounds" />
          </mxGeometry>
        </mxCell>
        <mxCell id="WTOQ7RgYzSvXcb4ZEk5k-333" value="" style="rounded=0;whiteSpace=wrap;html=1;fontSize=10;opacity=90;align=center;" parent="WTOQ7RgYzSvXcb4ZEk5k-292" vertex="1">
          <mxGeometry y="20" width="140" height="400" as="geometry" />
        </mxCell>
        <mxCell id="WTOQ7RgYzSvXcb4ZEk5k-293" value="开始" style="shape=parallelogram;html=1;strokeWidth=2;perimeter=parallelogramPerimeter;whiteSpace=wrap;rounded=1;arcSize=12;size=0.23;align=center;" parent="WTOQ7RgYzSvXcb4ZEk5k-292" vertex="1">
          <mxGeometry x="20" y="39" width="100" height="41" as="geometry" />
        </mxCell>
        <mxCell id="WTOQ7RgYzSvXcb4ZEk5k-294" style="edgeStyle=orthogonalEdgeStyle;rounded=0;orthogonalLoop=1;jettySize=auto;html=1;strokeWidth=4;entryX=0.5;entryY=0;entryDx=0;entryDy=0;exitX=0.5;exitY=1;exitDx=0;exitDy=0;" parent="WTOQ7RgYzSvXcb4ZEk5k-292" source="WTOQ7RgYzSvXcb4ZEk5k-293" target="WTOQ7RgYzSvXcb4ZEk5k-296" edge="1">
          <mxGeometry relative="1" as="geometry">
            <mxPoint x="70.06000000000026" y="249.9960000000001" as="sourcePoint" />
            <mxPoint x="69.58000000000024" y="359.1500000000001" as="targetPoint" />
            <Array as="points" />
          </mxGeometry>
        </mxCell>
        <mxCell id="WTOQ7RgYzSvXcb4ZEk5k-295" style="edgeStyle=orthogonalEdgeStyle;rounded=0;orthogonalLoop=1;jettySize=auto;html=1;strokeWidth=4;entryX=0.5;entryY=0;entryDx=0;entryDy=0;exitX=0.5;exitY=1;exitDx=0;exitDy=0;" parent="WTOQ7RgYzSvXcb4ZEk5k-292" source="WTOQ7RgYzSvXcb4ZEk5k-296" target="WTOQ7RgYzSvXcb4ZEk5k-298" edge="1">
          <mxGeometry relative="1" as="geometry">
            <mxPoint x="80" y="99" as="sourcePoint" />
            <mxPoint x="80" y="130" as="targetPoint" />
            <Array as="points">
              <mxPoint x="70" y="190" />
              <mxPoint x="70" y="190" />
            </Array>
          </mxGeometry>
        </mxCell>
        <mxCell id="WTOQ7RgYzSvXcb4ZEk5k-301" value="信息中心挂网" style="swimlane;fontStyle=0;childLayout=stackLayout;horizontal=1;startSize=20;fillColor=#ffcccc;horizontalStack=0;resizeParent=1;resizeParentMax=0;resizeLast=0;collapsible=1;marginBottom=0;strokeColor=#36393d;" parent="WTOQ7RgYzSvXcb4ZEk5k-292" vertex="1">
          <mxGeometry x="20" y="280" width="100" height="40" as="geometry">
            <mxRectangle x="30" y="280" width="100" height="20" as="alternateBounds" />
          </mxGeometry>
        </mxCell>
        <mxCell id="WTOQ7RgYzSvXcb4ZEk5k-302" value="信息中心挂网人" style="text;strokeColor=none;fillColor=none;align=center;verticalAlign=middle;spacingLeft=4;spacingRight=4;overflow=hidden;rotatable=0;points=[[0,0.5],[1,0.5]];portConstraint=eastwest;" parent="WTOQ7RgYzSvXcb4ZEk5k-301" vertex="1">
          <mxGeometry y="20" width="100" height="20" as="geometry" />
        </mxCell>
        <mxCell id="WTOQ7RgYzSvXcb4ZEk5k-298" value="图纸处理" style="swimlane;fontStyle=0;childLayout=stackLayout;horizontal=1;startSize=20;fillColor=#ffcccc;horizontalStack=0;resizeParent=1;resizeParentMax=0;resizeLast=0;collapsible=1;marginBottom=0;strokeColor=#36393d;fontSize=10;verticalAlign=middle;" parent="WTOQ7RgYzSvXcb4ZEk5k-292" vertex="1">
          <mxGeometry x="20" y="200" width="100" height="40" as="geometry">
            <mxRectangle x="30" y="200" width="100" height="20" as="alternateBounds" />
          </mxGeometry>
        </mxCell>
        <mxCell id="WTOQ7RgYzSvXcb4ZEk5k-299" value="信息中心经办" style="text;strokeColor=none;fillColor=none;align=center;verticalAlign=middle;spacingLeft=4;spacingRight=4;overflow=hidden;rotatable=0;points=[[0,0.5],[1,0.5]];portConstraint=eastwest;" parent="WTOQ7RgYzSvXcb4ZEk5k-298" vertex="1">
          <mxGeometry y="20" width="100" height="20" as="geometry" />
        </mxCell>
        <mxCell id="WTOQ7RgYzSvXcb4ZEk5k-296" value="案卷接件" style="swimlane;fontStyle=0;childLayout=stackLayout;horizontal=1;startSize=20;fillColor=#ffcccc;horizontalStack=0;resizeParent=1;resizeParentMax=0;resizeLast=0;collapsible=1;marginBottom=0;strokeColor=#36393d;verticalAlign=middle;" parent="WTOQ7RgYzSvXcb4ZEk5k-292" vertex="1">
          <mxGeometry x="20" y="120" width="100" height="40" as="geometry">
            <mxRectangle x="30" y="120" width="100" height="20" as="alternateBounds" />
          </mxGeometry>
        </mxCell>
        <mxCell id="WTOQ7RgYzSvXcb4ZEk5k-297" value="信息中心窗口" style="text;strokeColor=none;fillColor=none;align=center;verticalAlign=middle;spacingLeft=4;spacingRight=4;overflow=hidden;rotatable=0;points=[[0,0.5],[1,0.5]];portConstraint=eastwest;" parent="WTOQ7RgYzSvXcb4ZEk5k-296" vertex="1">
          <mxGeometry y="20" width="100" height="20" as="geometry" />
        </mxCell>
        <mxCell id="WTOQ7RgYzSvXcb4ZEk5k-300" style="edgeStyle=orthogonalEdgeStyle;rounded=0;orthogonalLoop=1;jettySize=auto;html=1;strokeWidth=4;entryX=0.5;entryY=0;entryDx=0;entryDy=0;" parent="WTOQ7RgYzSvXcb4ZEk5k-292" source="WTOQ7RgYzSvXcb4ZEk5k-298" target="WTOQ7RgYzSvXcb4ZEk5k-301" edge="1">
          <mxGeometry relative="1" as="geometry">
            <mxPoint x="80" y="570" as="sourcePoint" />
            <mxPoint x="80" y="601" as="targetPoint" />
            <Array as="points" />
          </mxGeometry>
        </mxCell>
        <mxCell id="WTOQ7RgYzSvXcb4ZEk5k-303" value="结束" style="strokeWidth=2;html=1;shape=mxgraph.flowchart.start_1;whiteSpace=wrap;align=center;" parent="WTOQ7RgYzSvXcb4ZEk5k-292" vertex="1">
          <mxGeometry x="20" y="360" width="100" height="40" as="geometry" />
        </mxCell>
        <mxCell id="WTOQ7RgYzSvXcb4ZEk5k-304" style="edgeStyle=orthogonalEdgeStyle;rounded=0;orthogonalLoop=1;jettySize=auto;html=1;strokeWidth=4;" parent="WTOQ7RgYzSvXcb4ZEk5k-292" source="WTOQ7RgYzSvXcb4ZEk5k-301" target="WTOQ7RgYzSvXcb4ZEk5k-303" edge="1">
          <mxGeometry relative="1" as="geometry">
            <mxPoint x="230" y="560" as="sourcePoint" />
            <mxPoint x="80" y="500" as="targetPoint" />
            <Array as="points" />
          </mxGeometry>
        </mxCell>
        <mxCell id="WTOQ7RgYzSvXcb4ZEk5k-369" style="edgeStyle=orthogonalEdgeStyle;rounded=0;orthogonalLoop=1;jettySize=auto;html=1;exitX=0.5;exitY=1;exitDx=0;exitDy=0;strokeWidth=4;fontSize=10;opacity=90;entryX=0;entryY=0.5;entryDx=0;entryDy=0;" parent="WIyWlLk6GJQsqaUBKTNV-1" source="q9Dw7c0gLZ24XJoEXtp0-320" target="q9Dw7c0gLZ24XJoEXtp0-338" edge="1">
          <mxGeometry relative="1" as="geometry">
            <mxPoint x="1230.8333333333333" y="1100" as="targetPoint" />
          </mxGeometry>
        </mxCell>
        <mxCell id="WTOQ7RgYzSvXcb4ZEk5k-306" value="放线定位" style="swimlane;align=center;html=0;fillColor=#fad7ac;strokeColor=#b46504;startSize=20;" parent="WIyWlLk6GJQsqaUBKTNV-1" vertex="1">
          <mxGeometry x="-400" y="720" width="140" height="420" as="geometry">
            <mxRectangle x="-220" y="800" width="140" height="20" as="alternateBounds" />
          </mxGeometry>
        </mxCell>
        <mxCell id="WTOQ7RgYzSvXcb4ZEk5k-330" value="" style="rounded=0;whiteSpace=wrap;html=1;fontSize=10;align=center;opacity=90;" parent="WTOQ7RgYzSvXcb4ZEk5k-306" vertex="1">
          <mxGeometry y="20" width="140" height="400" as="geometry" />
        </mxCell>
        <mxCell id="WTOQ7RgYzSvXcb4ZEk5k-315" value="意见反馈" style="swimlane;fontStyle=0;childLayout=stackLayout;horizontal=1;startSize=20;fillColor=#ffcccc;horizontalStack=0;resizeParent=1;resizeParentMax=0;resizeLast=0;collapsible=1;marginBottom=0;strokeColor=#36393d;" parent="WTOQ7RgYzSvXcb4ZEk5k-306" vertex="1">
          <mxGeometry x="20" y="280" width="100" height="40" as="geometry">
            <mxRectangle x="30" y="280" width="100" height="20" as="alternateBounds" />
          </mxGeometry>
        </mxCell>
        <mxCell id="WTOQ7RgYzSvXcb4ZEk5k-316" value="处室经办人" style="text;strokeColor=none;fillColor=none;align=center;verticalAlign=middle;spacingLeft=4;spacingRight=4;overflow=hidden;rotatable=0;points=[[0,0.5],[1,0.5]];portConstraint=eastwest;" parent="WTOQ7RgYzSvXcb4ZEk5k-315" vertex="1">
          <mxGeometry y="20" width="100" height="20" as="geometry" />
        </mxCell>
        <mxCell id="WTOQ7RgYzSvXcb4ZEk5k-312" value="放线定位" style="swimlane;fontStyle=0;childLayout=stackLayout;horizontal=1;startSize=20;fillColor=#ffcccc;horizontalStack=0;resizeParent=1;resizeParentMax=0;resizeLast=0;collapsible=1;marginBottom=0;strokeColor=#36393d;fontSize=10;verticalAlign=middle;" parent="WTOQ7RgYzSvXcb4ZEk5k-306" vertex="1">
          <mxGeometry x="20" y="200" width="100" height="40" as="geometry">
            <mxRectangle x="30" y="200" width="100" height="20" as="alternateBounds" />
          </mxGeometry>
        </mxCell>
        <mxCell id="WTOQ7RgYzSvXcb4ZEk5k-313" value="长勘院经办" style="text;strokeColor=none;fillColor=none;align=center;verticalAlign=middle;spacingLeft=4;spacingRight=4;overflow=hidden;rotatable=0;points=[[0,0.5],[1,0.5]];portConstraint=eastwest;" parent="WTOQ7RgYzSvXcb4ZEk5k-312" vertex="1">
          <mxGeometry y="20" width="100" height="20" as="geometry" />
        </mxCell>
        <mxCell id="WTOQ7RgYzSvXcb4ZEk5k-310" value="派单" style="swimlane;fontStyle=0;childLayout=stackLayout;horizontal=1;startSize=20;fillColor=#ffcccc;horizontalStack=0;resizeParent=1;resizeParentMax=0;resizeLast=0;collapsible=1;marginBottom=0;strokeColor=#36393d;verticalAlign=middle;" parent="WTOQ7RgYzSvXcb4ZEk5k-306" vertex="1">
          <mxGeometry x="20" y="120" width="100" height="40" as="geometry">
            <mxRectangle x="30" y="120" width="100" height="20" as="alternateBounds" />
          </mxGeometry>
        </mxCell>
        <mxCell id="WTOQ7RgYzSvXcb4ZEk5k-311" value="处室经办人" style="text;strokeColor=none;fillColor=none;align=center;verticalAlign=middle;spacingLeft=4;spacingRight=4;overflow=hidden;rotatable=0;points=[[0,0.5],[1,0.5]];portConstraint=eastwest;" parent="WTOQ7RgYzSvXcb4ZEk5k-310" vertex="1">
          <mxGeometry y="20" width="100" height="20" as="geometry" />
        </mxCell>
        <mxCell id="WTOQ7RgYzSvXcb4ZEk5k-307" value="开始" style="shape=parallelogram;html=1;strokeWidth=2;perimeter=parallelogramPerimeter;whiteSpace=wrap;rounded=1;arcSize=12;size=0.23;align=center;" parent="WTOQ7RgYzSvXcb4ZEk5k-306" vertex="1">
          <mxGeometry x="20" y="39" width="100" height="41" as="geometry" />
        </mxCell>
        <mxCell id="WTOQ7RgYzSvXcb4ZEk5k-308" style="edgeStyle=orthogonalEdgeStyle;rounded=0;orthogonalLoop=1;jettySize=auto;html=1;strokeWidth=4;entryX=0.5;entryY=0;entryDx=0;entryDy=0;exitX=0.5;exitY=1;exitDx=0;exitDy=0;" parent="WTOQ7RgYzSvXcb4ZEk5k-306" source="WTOQ7RgYzSvXcb4ZEk5k-307" target="WTOQ7RgYzSvXcb4ZEk5k-310" edge="1">
          <mxGeometry relative="1" as="geometry">
            <mxPoint x="70.06000000000026" y="249.9960000000001" as="sourcePoint" />
            <mxPoint x="69.58000000000024" y="359.1500000000001" as="targetPoint" />
            <Array as="points" />
          </mxGeometry>
        </mxCell>
        <mxCell id="WTOQ7RgYzSvXcb4ZEk5k-309" style="edgeStyle=orthogonalEdgeStyle;rounded=0;orthogonalLoop=1;jettySize=auto;html=1;strokeWidth=4;entryX=0.5;entryY=0;entryDx=0;entryDy=0;exitX=0.5;exitY=1;exitDx=0;exitDy=0;" parent="WTOQ7RgYzSvXcb4ZEk5k-306" source="WTOQ7RgYzSvXcb4ZEk5k-310" target="WTOQ7RgYzSvXcb4ZEk5k-312" edge="1">
          <mxGeometry relative="1" as="geometry">
            <mxPoint x="80" y="99" as="sourcePoint" />
            <mxPoint x="80" y="130" as="targetPoint" />
            <Array as="points">
              <mxPoint x="70" y="190" />
              <mxPoint x="70" y="190" />
            </Array>
          </mxGeometry>
        </mxCell>
        <mxCell id="WTOQ7RgYzSvXcb4ZEk5k-314" style="edgeStyle=orthogonalEdgeStyle;rounded=0;orthogonalLoop=1;jettySize=auto;html=1;strokeWidth=4;entryX=0.5;entryY=0;entryDx=0;entryDy=0;" parent="WTOQ7RgYzSvXcb4ZEk5k-306" source="WTOQ7RgYzSvXcb4ZEk5k-312" target="WTOQ7RgYzSvXcb4ZEk5k-315" edge="1">
          <mxGeometry relative="1" as="geometry">
            <mxPoint x="80" y="570" as="sourcePoint" />
            <mxPoint x="80" y="601" as="targetPoint" />
            <Array as="points" />
          </mxGeometry>
        </mxCell>
        <mxCell id="WTOQ7RgYzSvXcb4ZEk5k-317" value="结束" style="strokeWidth=2;html=1;shape=mxgraph.flowchart.start_1;whiteSpace=wrap;align=center;" parent="WTOQ7RgYzSvXcb4ZEk5k-306" vertex="1">
          <mxGeometry x="20" y="360" width="100" height="40" as="geometry" />
        </mxCell>
        <mxCell id="WTOQ7RgYzSvXcb4ZEk5k-318" style="edgeStyle=orthogonalEdgeStyle;rounded=0;orthogonalLoop=1;jettySize=auto;html=1;strokeWidth=4;" parent="WTOQ7RgYzSvXcb4ZEk5k-306" source="WTOQ7RgYzSvXcb4ZEk5k-315" target="WTOQ7RgYzSvXcb4ZEk5k-317" edge="1">
          <mxGeometry relative="1" as="geometry">
            <mxPoint x="230" y="560" as="sourcePoint" />
            <mxPoint x="80" y="500" as="targetPoint" />
            <Array as="points" />
          </mxGeometry>
        </mxCell>
        <mxCell id="WTOQ7RgYzSvXcb4ZEk5k-335" value="自动分卷" style="swimlane;startSize=39;fillColor=#d80073;strokeColor=#A50040;fontColor=#ffffff;" parent="WIyWlLk6GJQsqaUBKTNV-1" vertex="1">
          <mxGeometry x="-320" y="200" width="160" height="170" as="geometry">
            <mxRectangle x="-520" y="200" width="160" height="40" as="alternateBounds" />
          </mxGeometry>
        </mxCell>
        <mxCell id="WTOQ7RgYzSvXcb4ZEk5k-368" style="edgeStyle=orthogonalEdgeStyle;rounded=0;orthogonalLoop=1;jettySize=auto;html=1;exitX=0.5;exitY=1;exitDx=0;exitDy=0;entryX=0.5;entryY=0;entryDx=0;entryDy=0;strokeWidth=4;fontSize=10;opacity=90;" parent="WIyWlLk6GJQsqaUBKTNV-1" source="WTOQ7RgYzSvXcb4ZEk5k-340" target="WTOQ7RgYzSvXcb4ZEk5k-306" edge="1">
          <mxGeometry relative="1" as="geometry" />
        </mxCell>
        <mxCell id="WTOQ7RgYzSvXcb4ZEk5k-340" value="发起相关业务" style="swimlane;startSize=39;fillColor=#d80073;strokeColor=#A50040;fontColor=#ffffff;" parent="WIyWlLk6GJQsqaUBKTNV-1" vertex="1">
          <mxGeometry x="-520" y="560" width="380" height="120" as="geometry">
            <mxRectangle x="-520" y="560" width="380" height="40" as="alternateBounds" />
          </mxGeometry>
        </mxCell>
        <mxCell id="WTOQ7RgYzSvXcb4ZEk5k-349" value="调取相同材料及信息" style="rounded=0;whiteSpace=wrap;html=1;" parent="WTOQ7RgYzSvXcb4ZEk5k-340" vertex="1">
          <mxGeometry y="40" width="380" height="40" as="geometry" />
        </mxCell>
        <mxCell id="WTOQ7RgYzSvXcb4ZEk5k-351" value="可配制多个相关业务" style="rounded=0;whiteSpace=wrap;html=1;" parent="WTOQ7RgYzSvXcb4ZEk5k-340" vertex="1">
          <mxGeometry y="80" width="380" height="40" as="geometry" />
        </mxCell>
        <mxCell id="WTOQ7RgYzSvXcb4ZEk5k-347" style="edgeStyle=orthogonalEdgeStyle;rounded=0;orthogonalLoop=1;jettySize=auto;html=1;entryX=0.5;entryY=0;entryDx=0;entryDy=0;strokeWidth=4;fontSize=10;opacity=90;" parent="WIyWlLk6GJQsqaUBKTNV-1" source="Fh-ANMCCMXkpX_T69aen-12" target="WTOQ7RgYzSvXcb4ZEk5k-343" edge="1">
          <mxGeometry relative="1" as="geometry">
            <Array as="points">
              <mxPoint x="1480" y="240" />
            </Array>
          </mxGeometry>
        </mxCell>
        <mxCell id="q9Dw7c0gLZ24XJoEXtp0-338" value="核面、核指标、日照成果材料" style="swimlane;fontStyle=0;childLayout=stackLayout;horizontal=1;startSize=41;fillColor=#f8cecc;horizontalStack=0;resizeParent=1;resizeParentMax=0;resizeLast=0;collapsible=1;marginBottom=0;align=center;html=0;strokeColor=#b85450;" parent="WIyWlLk6GJQsqaUBKTNV-1" vertex="1">
          <mxGeometry x="1359.5100000000002" y="1080" width="240" height="160" as="geometry">
            <mxRectangle x="1359.5100000000002" y="1080" width="239.99" height="40.5" as="alternateBounds" />
          </mxGeometry>
        </mxCell>
        <mxCell id="q9Dw7c0gLZ24XJoEXtp0-336" value="日照分析报告" style="shape=note;whiteSpace=wrap;html=1;backgroundOutline=1;darkOpacity=0.05;align=center;size=16;" parent="q9Dw7c0gLZ24XJoEXtp0-338" vertex="1">
          <mxGeometry y="41" width="240" height="40" as="geometry" />
        </mxCell>
        <mxCell id="q9Dw7c0gLZ24XJoEXtp0-337" value="建筑面积复核表" style="shape=note;whiteSpace=wrap;html=1;backgroundOutline=1;darkOpacity=0.05;align=center;size=16;" parent="q9Dw7c0gLZ24XJoEXtp0-338" vertex="1">
          <mxGeometry y="81" width="240" height="40" as="geometry" />
        </mxCell>
        <mxCell id="q9Dw7c0gLZ24XJoEXtp0-335" value="主要经济指标复核表" style="shape=note;whiteSpace=wrap;html=1;backgroundOutline=1;darkOpacity=0.05;align=center;size=16;" parent="q9Dw7c0gLZ24XJoEXtp0-338" vertex="1">
          <mxGeometry y="121" width="240" height="39" as="geometry" />
        </mxCell>
        <mxCell id="q9Dw7c0gLZ24XJoEXtp0-334" value="放线定位成果材料" style="swimlane;fontStyle=0;childLayout=stackLayout;horizontal=1;startSize=40;fillColor=#f8cecc;horizontalStack=0;resizeParent=1;resizeParentMax=0;resizeLast=0;collapsible=1;marginBottom=0;align=center;html=0;strokeColor=#b85450;" parent="WIyWlLk6GJQsqaUBKTNV-1" vertex="1">
          <mxGeometry x="1359.51" y="1280" width="240" height="80" as="geometry">
            <mxRectangle x="1360.03" y="1320" width="239.99" height="40" as="alternateBounds" />
          </mxGeometry>
        </mxCell>
        <mxCell id="q9Dw7c0gLZ24XJoEXtp0-339" value="放线定位图" style="shape=note;whiteSpace=wrap;html=1;backgroundOutline=1;darkOpacity=0.05;align=center;size=16;" parent="q9Dw7c0gLZ24XJoEXtp0-334" vertex="1">
          <mxGeometry y="40" width="240" height="40" as="geometry" />
        </mxCell>
        <mxCell id="q9Dw7c0gLZ24XJoEXtp0-286" value="批后公布图纸" style="swimlane;fontStyle=0;childLayout=stackLayout;horizontal=1;startSize=40;fillColor=#f8cecc;horizontalStack=0;resizeParent=1;resizeParentMax=0;resizeLast=0;collapsible=1;marginBottom=0;align=center;html=0;strokeColor=#b85450;" parent="WIyWlLk6GJQsqaUBKTNV-1" vertex="1">
          <mxGeometry x="1360.3" y="1400" width="240" height="108" as="geometry">
            <mxRectangle x="1360.3" y="1400" width="239.99" height="40" as="alternateBounds" />
          </mxGeometry>
        </mxCell>
        <mxCell id="q9Dw7c0gLZ24XJoEXtp0-287" value="规划方案审查通知单(PDF)_盖章_去章" style="shape=note;whiteSpace=wrap;html=1;backgroundOutline=1;darkOpacity=0.05;align=center;size=16;" parent="q9Dw7c0gLZ24XJoEXtp0-286" vertex="1">
          <mxGeometry y="40" width="240" height="34" as="geometry" />
        </mxCell>
        <mxCell id="q9Dw7c0gLZ24XJoEXtp0-288" value="规划总平面图(PDF)_盖章_去章去坐标" style="shape=note;whiteSpace=wrap;html=1;backgroundOutline=1;darkOpacity=0.05;align=center;size=16;" parent="q9Dw7c0gLZ24XJoEXtp0-286" vertex="1">
          <mxGeometry y="74" width="240" height="34" as="geometry" />
        </mxCell>
        <mxCell id="WTOQ7RgYzSvXcb4ZEk5k-283" style="edgeStyle=orthogonalEdgeStyle;rounded=0;orthogonalLoop=1;jettySize=auto;html=1;exitX=0;exitY=0.25;exitDx=0;exitDy=0;entryX=1;entryY=0.5;entryDx=0;entryDy=0;strokeWidth=4;" parent="WIyWlLk6GJQsqaUBKTNV-1" source="WTOQ7RgYzSvXcb4ZEk5k-181" target="WTOQ7RgYzSvXcb4ZEk5k-69" edge="1">
          <mxGeometry relative="1" as="geometry">
            <Array as="points">
              <mxPoint x="440" y="-170" />
              <mxPoint x="440" y="-140" />
            </Array>
          </mxGeometry>
        </mxCell>
        <mxCell id="WTOQ7RgYzSvXcb4ZEk5k-370" style="edgeStyle=orthogonalEdgeStyle;rounded=0;orthogonalLoop=1;jettySize=auto;html=1;exitX=0.5;exitY=1;exitDx=0;exitDy=0;entryX=0;entryY=0.5;entryDx=0;entryDy=0;strokeWidth=4;fontSize=10;opacity=90;" parent="WIyWlLk6GJQsqaUBKTNV-1" source="WTOQ7RgYzSvXcb4ZEk5k-330" target="q9Dw7c0gLZ24XJoEXtp0-334" edge="1">
          <mxGeometry relative="1" as="geometry" />
        </mxCell>
        <mxCell id="WTOQ7RgYzSvXcb4ZEk5k-379" style="edgeStyle=orthogonalEdgeStyle;rounded=0;orthogonalLoop=1;jettySize=auto;html=1;exitX=0.5;exitY=1;exitDx=0;exitDy=0;strokeWidth=4;fontSize=10;opacity=90;entryX=0;entryY=0.5;entryDx=0;entryDy=0;" parent="WIyWlLk6GJQsqaUBKTNV-1" source="WTOQ7RgYzSvXcb4ZEk5k-333" target="q9Dw7c0gLZ24XJoEXtp0-286" edge="1">
          <mxGeometry relative="1" as="geometry">
            <mxPoint x="1231.4285714285713" y="1430" as="targetPoint" />
          </mxGeometry>
        </mxCell>
        <mxCell id="WTOQ7RgYzSvXcb4ZEk5k-380" style="edgeStyle=orthogonalEdgeStyle;rounded=0;orthogonalLoop=1;jettySize=auto;html=1;entryX=0.5;entryY=0;entryDx=0;entryDy=0;strokeWidth=4;fontSize=10;opacity=90;exitX=0.5;exitY=1;exitDx=0;exitDy=0;" parent="WIyWlLk6GJQsqaUBKTNV-1" source="WTOQ7RgYzSvXcb4ZEk5k-340" target="WTOQ7RgYzSvXcb4ZEk5k-292" edge="1">
          <mxGeometry relative="1" as="geometry">
            <Array as="points">
              <mxPoint x="-330" y="690" />
              <mxPoint x="-510" y="690" />
            </Array>
            <mxPoint x="-710" y="700" as="sourcePoint" />
          </mxGeometry>
        </mxCell>
        <mxCell id="WTOQ7RgYzSvXcb4ZEk5k-381" style="edgeStyle=orthogonalEdgeStyle;rounded=0;orthogonalLoop=1;jettySize=auto;html=1;entryX=0.5;entryY=0;entryDx=0;entryDy=0;strokeWidth=4;fontSize=10;opacity=90;exitX=0.5;exitY=1;exitDx=0;exitDy=0;" parent="WIyWlLk6GJQsqaUBKTNV-1" source="WTOQ7RgYzSvXcb4ZEk5k-340" target="q9Dw7c0gLZ24XJoEXtp0-320" edge="1">
          <mxGeometry relative="1" as="geometry">
            <Array as="points">
              <mxPoint x="-330" y="690" />
              <mxPoint x="-150" y="690" />
            </Array>
            <mxPoint x="-640" y="710" as="sourcePoint" />
          </mxGeometry>
        </mxCell>
        <mxCell id="WTOQ7RgYzSvXcb4ZEk5k-382" style="edgeStyle=orthogonalEdgeStyle;rounded=0;orthogonalLoop=1;jettySize=auto;html=1;strokeWidth=4;fontSize=10;opacity=90;" parent="WIyWlLk6GJQsqaUBKTNV-1" target="WTOQ7RgYzSvXcb4ZEk5k-340" edge="1">
          <mxGeometry relative="1" as="geometry">
            <Array as="points">
              <mxPoint x="180" y="620" />
            </Array>
            <mxPoint x="180" y="620" as="sourcePoint" />
          </mxGeometry>
        </mxCell>
        <mxCell id="WTOQ7RgYzSvXcb4ZEk5k-383" style="edgeStyle=orthogonalEdgeStyle;rounded=0;orthogonalLoop=1;jettySize=auto;html=1;exitX=0;exitY=0.5;exitDx=0;exitDy=0;entryX=1;entryY=0.5;entryDx=0;entryDy=0;strokeWidth=4;fontSize=10;opacity=90;" parent="WIyWlLk6GJQsqaUBKTNV-1" source="q9Dw7c0gLZ24XJoEXtp0-247" target="WTOQ7RgYzSvXcb4ZEk5k-340" edge="1">
          <mxGeometry relative="1" as="geometry">
            <Array as="points">
              <mxPoint x="10" y="880" />
              <mxPoint x="10" y="620" />
            </Array>
          </mxGeometry>
        </mxCell>
        <mxCell id="WTOQ7RgYzSvXcb4ZEk5k-384" style="edgeStyle=orthogonalEdgeStyle;rounded=0;orthogonalLoop=1;jettySize=auto;html=1;exitX=1;exitY=0.5;exitDx=0;exitDy=0;strokeWidth=4;fontSize=10;opacity=90;" parent="WIyWlLk6GJQsqaUBKTNV-1" source="q9Dw7c0gLZ24XJoEXtp0-10" target="q9Dw7c0gLZ24XJoEXtp0-105" edge="1">
          <mxGeometry relative="1" as="geometry">
            <Array as="points">
              <mxPoint x="480" y="-440" />
              <mxPoint x="480" y="-360" />
              <mxPoint x="1160" y="-360" />
              <mxPoint x="1160" y="-600" />
              <mxPoint x="1480" y="-600" />
            </Array>
            <mxPoint x="1590" y="-600" as="targetPoint" />
          </mxGeometry>
        </mxCell>
        <mxCell id="VweyK0QECbf63nh4BsQf-0" style="edgeStyle=orthogonalEdgeStyle;rounded=0;orthogonalLoop=1;jettySize=auto;html=1;exitX=1;exitY=0.5;exitDx=0;exitDy=0;strokeWidth=4;" parent="WIyWlLk6GJQsqaUBKTNV-1" source="q9Dw7c0gLZ24XJoEXtp0-53" target="q9Dw7c0gLZ24XJoEXtp0-124" edge="1">
          <mxGeometry relative="1" as="geometry">
            <mxPoint x="1330" y="-40" as="targetPoint" />
            <Array as="points">
              <mxPoint x="500" y="200" />
              <mxPoint x="500" y="-40" />
            </Array>
          </mxGeometry>
        </mxCell>
        <mxCell id="VweyK0QECbf63nh4BsQf-5" value="进窗材料" style="swimlane;startSize=40;" parent="WIyWlLk6GJQsqaUBKTNV-1" vertex="1">
          <mxGeometry x="800" y="-800" width="320" height="200" as="geometry">
            <mxRectangle x="1760" y="-360" width="239.59" height="40" as="alternateBounds" />
          </mxGeometry>
        </mxCell>
        <mxCell id="Fh-ANMCCMXkpX_T69aen-15" style="edgeStyle=orthogonalEdgeStyle;rounded=0;orthogonalLoop=1;jettySize=auto;html=1;exitX=1;exitY=0.5;exitDx=0;exitDy=0;strokeWidth=4;fontSize=10;opacity=90;" edge="1" parent="WIyWlLk6GJQsqaUBKTNV-1" source="q9Dw7c0gLZ24XJoEXtp0-53" target="Fh-ANMCCMXkpX_T69aen-12">
          <mxGeometry relative="1" as="geometry">
            <Array as="points">
              <mxPoint x="500" y="200" />
              <mxPoint x="500" y="240" />
            </Array>
            <mxPoint x="480" y="200" as="sourcePoint" />
            <mxPoint x="1480.4099999999999" y="280" as="targetPoint" />
          </mxGeometry>
        </mxCell>
        <mxCell id="Fh-ANMCCMXkpX_T69aen-26" style="edgeStyle=orthogonalEdgeStyle;rounded=0;orthogonalLoop=1;jettySize=auto;html=1;strokeWidth=4;" edge="1" parent="WIyWlLk6GJQsqaUBKTNV-1" source="Fh-ANMCCMXkpX_T69aen-19" target="WTOQ7RgYzSvXcb4ZEk5k-84">
          <mxGeometry relative="1" as="geometry">
            <mxPoint x="1310" y="550" as="sourcePoint" />
            <Array as="points">
              <mxPoint x="1290" y="560" />
              <mxPoint x="1290" y="560" />
            </Array>
          </mxGeometry>
        </mxCell>
      </root>
    </mxGraphModel>
  </diagram>
</mxfile>
